<?xml version="1.0" encoding="UTF-8"?>
<svg width="300px" height="86px" viewBox="0 0 300 86" version="1.1" xmlns="http://www.w3.org/2000/svg" xmlns:xlink="http://www.w3.org/1999/xlink">
    <!-- Generator: Sketch 51.1 (57501) - http://www.bohemiancoding.com/sketch -->
    <title>Logo</title>
    <desc>Created with Sketch.</desc>
    <defs></defs>
    <g id="Site-design" stroke="none" stroke-width="1" fill="none" fill-rule="evenodd">
        <g id="Homepage" transform="translate(-250.000000, -20.000000)">
            <g id="Logo" transform="translate(250.000000, 20.000000)">
                <rect id="Rectangle" fill="#DB2B39" x="0" y="0" width="24" height="85"></rect>
                <rect id="Rectangle" fill="#DB2B39" x="28" y="0" width="19" height="57"></rect>
                <rect id="Rectangle" fill="#DB2B39" transform="translate(54.500000, 30.000000) rotate(90.000000) translate(-54.500000, -30.000000) " x="45" y="12" width="19" height="36"></rect>
                <rect id="Rectangle" fill="#DB2B39" x="66" y="0" width="19" height="57"></rect>
                <rect id="Rectangle" fill="#DB2B39" transform="translate(43.000000, 73.500000) rotate(90.000000) translate(-43.000000, -73.500000) " x="31" y="31" width="24" height="85"></rect>
                <path d="M94.0918868,0.29077586 L94.0918868,18.6951774 L103.797605,18.6951774 L103.797605,22.6976216 L88.8432273,22.6976216 L88.8432273,0.29077586 L94.0918868,0.29077586 Z M119.523511,22.6976216 L118.232857,18.3359837 L111.125656,18.3359837 L109.85221,22.6976216 L104.586342,22.6976216 L111.865631,0.29077586 L117.492882,0.29077586 L124.789379,22.6976216 L119.523511,22.6976216 Z M114.636235,6.31154662 L112.295849,14.3335395 L117.079873,14.3335395 L114.722278,6.31154662 L114.636235,6.31154662 Z M145.144431,0.29077586 L145.144431,22.6976216 L139.930189,22.6976216 L131.670004,8.41539549 L131.58396,8.44960441 L131.58396,22.6976216 L126.3353,22.6976216 L126.3353,0.29077586 L131.58396,0.29077586 L139.826937,14.5730019 L139.930189,14.538793 L139.930189,0.29077586 L145.144431,0.29077586 Z M156.430488,4.29322006 L153.900806,4.29322006 L153.900806,18.6951774 L156.430488,18.6951774 C157.818665,18.6951774 158.908539,18.2248094 159.700144,17.2840592 C160.49175,16.3433091 160.887546,15.0861437 160.887546,13.5125253 L160.887546,9.44166323 C160.887546,7.86804482 160.49175,6.61658084 159.700144,5.68723374 C158.908539,4.75788664 157.818665,4.29322006 156.430488,4.29322006 Z M156.791871,22.6976216 L148.652146,22.6976216 L148.652146,0.29077586 L156.791871,0.29077586 C159.476445,0.29077586 161.704951,1.15169186 163.477458,2.87354968 C165.249965,4.5954075 166.136206,6.79615965 166.136206,9.47587216 L166.136206,13.5125253 C166.136206,16.1922378 165.249965,18.3929899 163.477458,20.1148478 C161.704951,21.8367056 159.476445,22.6976216 156.791871,22.6976216 Z M178.058985,19.1227889 L178.058985,19.1398934 C179.125931,19.1398934 179.928996,18.9317912 180.468206,18.5155805 C181.007415,18.0993699 181.277015,17.5149732 181.277015,16.7623731 C181.277015,16.009773 181.027491,15.419675 180.528436,14.9920613 C180.029381,14.5644476 179.074306,14.0940796 177.663184,13.5809431 C174.611489,12.6344915 172.448948,11.6452933 171.175497,10.6133189 C169.902045,9.58134451 169.265329,8.13318118 169.265329,6.26878546 C169.265329,4.40438974 170.074131,2.89351067 171.691758,1.73610293 C173.309386,0.57869519 175.388752,0 177.929919,0 C180.471086,0 182.533244,0.63856021 184.116454,1.91569979 C185.699664,3.19283936 186.462577,4.83485133 186.405214,6.84178495 L186.370797,6.94441172 L181.294224,6.94441172 C181.294224,6.02076614 180.987338,5.28528161 180.373558,4.73793608 C179.759777,4.19059055 178.92803,3.91692188 177.878293,3.91692188 C176.828556,3.91692188 175.999678,4.1449791 175.391633,4.60110038 C174.783589,5.05722166 174.479571,5.61596184 174.479571,6.27733769 C174.479571,6.93871354 174.76638,7.46894657 175.340007,7.86805269 C175.913634,8.26715881 177.06087,8.77458612 178.781751,9.39034984 C181.466325,10.177159 183.428099,11.1292979 184.667133,12.2467951 C185.906167,13.3642922 186.525675,14.8865741 186.525675,16.8136865 C186.525675,18.7407989 185.759895,20.2630808 184.228311,21.380578 C182.696727,22.4980751 180.640306,23.0568153 178.058985,23.0568153 C176.315159,23.0568153 174.737709,22.7802959 173.326587,22.2272489 C171.915465,21.6742018 170.782569,20.8246887 169.927865,19.678684 C169.073161,18.5326793 168.663024,17.1785895 168.697441,15.6163741 L168.71465,15.5308518 L173.82564,15.5308518 C173.82564,16.7965884 174.166943,17.711668 174.849559,18.276118 C175.532175,18.8405681 176.601973,19.1227889 178.058985,19.1227889 Z M204.514528,20.9957276 C203.051779,22.3697929 200.926524,23.0568153 198.138697,23.0568153 C195.350871,23.0568153 193.087947,22.2073021 191.349857,20.5082504 C189.611768,18.8091986 188.742736,16.5970436 188.742736,13.871719 L188.742736,9.1850963 C188.742736,6.45977166 189.580219,4.24761665 191.255209,2.54856489 C192.9302,0.849513136 195.147234,0 197.906379,0 C200.665525,0 202.805121,0.701275945 204.325232,2.10384887 C205.845343,3.5064218 206.702902,5.54183247 206.897936,8.21014194 L206.863518,8.31276871 L201.769737,8.31276871 C201.700902,6.8075685 201.368203,5.71289385 200.771631,5.02871194 C200.175059,4.34453002 199.194172,4.0024442 197.82894,4.0024442 C196.647269,4.0024442 195.712271,4.46996149 195.023919,5.40501011 C194.335567,6.34005873 193.991396,7.588672 193.991396,9.15088737 L193.991396,13.871719 C193.991396,15.4453374 194.367116,16.7025028 195.118567,17.6432529 C195.870018,18.5840031 196.879586,19.0543711 198.147301,19.0543711 C199.415017,19.0543711 200.315598,18.7293896 200.849071,18.0794167 C201.382544,17.4294439 201.683693,16.357575 201.752528,14.8637778 L206.829101,14.8637778 L206.863518,14.9664046 C206.760265,17.611908 205.977276,19.6216622 204.514528,20.9957276 Z M222.881973,22.6976216 L221.591319,18.3359837 L214.484117,18.3359837 L213.210672,22.6976216 L207.944804,22.6976216 L215.224092,0.29077586 L220.851344,0.29077586 L228.147841,22.6976216 L222.881973,22.6976216 Z M217.994696,6.31154662 L215.65431,14.3335395 L220.438334,14.3335395 L218.08074,6.31154662 L217.994696,6.31154662 Z M234.942421,4.29322006 L234.942421,11.0152738 L238.848801,11.0152738 C239.961637,11.0152738 240.819196,10.713098 241.421504,10.1087373 C242.023813,9.50437657 242.324962,8.69192273 242.324962,7.67135138 C242.324962,6.65078002 242.023813,5.83262475 241.421504,5.21686102 C240.819196,4.6010973 239.961637,4.29322006 238.848801,4.29322006 L234.942421,4.29322006 Z M238.848801,15.017718 L234.942421,15.017718 L234.942421,22.6976216 L229.693762,22.6976216 L229.693762,0.29077586 L238.848801,0.29077586 C241.521902,0.29077586 243.641422,0.963544653 245.207423,2.30910242 C246.773424,3.65466019 247.556413,5.43920792 247.556413,7.66279914 C247.556413,9.88639037 246.773424,11.6680874 245.207423,13.0079436 C243.641422,14.3477999 241.521902,15.017718 238.848801,15.017718 Z M256.037448,0.29077586 L256.037448,22.6976216 L250.805997,22.6976216 L250.805997,0.29077586 L256.037448,0.29077586 Z M278.68126,0.29077586 L278.68126,22.6976216 L273.467018,22.6976216 L265.206832,8.41539549 L265.120789,8.44960441 L265.120789,22.6976216 L259.872129,22.6976216 L259.872129,0.29077586 L265.120789,0.29077586 L273.363765,14.5730019 L273.467018,14.538793 L273.467018,0.29077586 L278.68126,0.29077586 Z M300,11.2205273 L300,19.6359228 C299.13956,20.6393896 297.969378,21.4603956 296.489421,22.0989654 C295.009464,22.7375352 293.24272,23.0568153 291.189135,23.0568153 C288.389836,23.0568153 286.121176,22.2073021 284.383087,20.5082504 C282.644997,18.8091986 281.775966,16.5970436 281.775966,13.871719 L281.775966,9.1850963 C281.775966,6.4711747 282.622053,4.2618704 284.314252,2.55711713 C286.006451,0.852363851 288.23209,0 290.991235,0 C293.75038,0 295.867032,0.64426164 297.341253,1.93280425 C298.815474,3.22134686 299.655825,5.06290889 299.86233,7.4575456 L299.845122,7.56017237 L294.923428,7.56017237 C294.75134,6.34004795 294.364147,5.44207266 293.761839,4.86621955 C293.159531,4.29036643 292.253214,4.0024442 291.042861,4.0024442 C289.832509,4.0024442 288.857358,4.47851364 288.117379,5.4306668 C287.3774,6.38281997 287.007416,7.62288109 287.007416,9.15088737 L287.007416,13.871719 C287.007416,15.4567404 287.374532,16.7167566 288.108775,17.6518052 C288.843017,18.5868538 289.869794,19.0543711 291.189135,19.0543711 C292.864126,19.0543711 294.051516,18.7692996 294.75134,18.199148 L294.75134,14.6585243 L291.189135,14.6585243 L291.189135,11.2205273 L300,11.2205273 Z M89.9962115,36.9923631 C89.9962115,35.2020871 90.5813021,33.7482223 91.7515009,32.6307252 C92.9216997,31.5132281 94.4647329,30.9544879 96.3806466,30.9544879 C98.0097469,30.9544879 99.3405413,31.4676166 100.37307,32.4938895 C101.405598,33.5201624 101.921854,34.8029842 101.921854,36.3423935 C101.921854,37.3344573 101.692407,38.2609398 101.233506,39.1218687 C100.774604,39.9827976 100.132152,40.70973 99.306129,41.3026876 L97.9638488,42.2263286 L101.732558,46.5366531 C102.489746,45.3621408 102.868334,44.0109018 102.868334,42.4828955 L106.551,42.4828955 C106.551,45.504699 105.874131,47.9164041 104.520371,49.7180831 L107.927698,53.6179005 L107.89328,53.6863184 L102.179985,53.6863184 L101.027001,52.3863793 C99.2946478,53.4696673 97.3558181,54.0113032 95.2104536,54.0113032 C93.0650892,54.0113032 91.3270258,53.432608 89.9962115,52.2752002 C88.6653972,51.1177925 88,49.581257 88,47.6655476 C88,46.5252444 88.2982815,45.538897 88.8948534,44.7064756 C89.4914254,43.8740543 90.4952573,42.9447212 91.9063794,41.9184483 L91.9752143,41.9013438 C91.2868621,40.9434891 90.7849461,40.0825731 90.4694513,39.31857 C90.1539565,38.5545669 89.9962115,37.7791723 89.9962115,36.9923631 Z M97.5766526,35.4957227 C97.2496853,35.1479302 96.8194716,34.9740366 96.2859986,34.9740366 C95.7525256,34.9740366 95.322312,35.159333 94.9953446,35.5299316 C94.6683773,35.9005301 94.5048961,36.3765996 94.5048961,36.9581542 C94.5048961,37.6993513 94.8949565,38.5602673 95.6750891,39.540928 L96.60436,38.9593763 C97.1665143,38.5944793 97.5508385,38.2438413 97.7573442,37.9074519 C97.9638499,37.5710624 98.0671011,37.1719623 98.0671011,36.7101395 C98.0671011,36.2483167 97.9036199,35.8435151 97.5766526,35.4957227 Z M93.2486596,47.3063539 C93.2486596,47.8308934 93.3605151,48.3012614 93.5842296,48.7174721 C93.8079441,49.1336827 94.1062256,49.4529628 94.479083,49.675322 C94.8519405,49.8976811 95.2678137,50.008859 95.7267152,50.008859 C96.6674633,50.008859 97.5565716,49.8207118 98.3940668,49.4444117 L94.263974,44.791998 L94.1263043,44.8775203 C93.5412049,45.5845082 93.2486596,46.3941114 93.2486596,47.3063539 Z M126.834353,35.2648124 L124.304671,35.2648124 L124.304671,49.6667697 L126.834353,49.6667697 C128.22253,49.6667697 129.312405,49.1964017 130.10401,48.2556516 C130.895615,47.3149015 131.291412,46.057736 131.291412,44.4841176 L131.291412,40.4132556 C131.291412,38.8396372 130.895615,37.5881732 130.10401,36.6588261 C129.312405,35.729479 128.22253,35.2648124 126.834353,35.2648124 Z M127.195736,53.6692139 L119.056012,53.6692139 L119.056012,31.2623682 L127.195736,31.2623682 C129.88031,31.2623682 132.108817,32.1232842 133.881324,33.845142 C135.653831,35.5669999 136.540071,37.767752 136.540071,40.4474645 L136.540071,44.4841176 C136.540071,47.1638301 135.653831,49.3645823 133.881324,51.0864401 C132.108817,52.8082979 129.88031,53.6692139 127.195736,53.6692139 Z M144.96948,53.635005 L139.720821,53.635005 L139.720821,31.2281593 L148.394015,31.2281593 C151.021227,31.2281593 153.094857,31.8268095 154.614968,33.0241278 C156.135079,34.2214462 156.895123,35.8634582 156.895123,37.950213 C156.895123,40.2422224 155.679052,41.918443 153.246874,42.9789249 C154.600634,43.366628 155.587257,44.0051882 156.206774,44.8946247 C156.826291,45.7840612 157.136045,46.9300487 157.136045,48.3326217 L157.136045,49.7351876 C157.136045,50.4421756 157.23356,51.1491529 157.428593,51.8561409 C157.623627,52.5631289 157.921908,53.0648548 158.323447,53.3613336 L158.323447,53.6692139 L152.919909,53.6692139 C152.254502,53.1446745 151.921803,51.8333455 151.921803,49.7351876 L151.921803,48.3668306 C151.921803,47.2949456 151.637862,46.479641 151.069971,45.9208925 C150.502081,45.3621439 149.667466,45.0827738 148.566103,45.0827738 L144.96948,45.0485649 L144.96948,53.635005 Z M144.96948,35.2648124 L144.96948,41.0803296 L148.411224,41.0803296 C149.466698,41.0803296 150.272631,40.8437203 150.829049,40.3704944 C151.385467,39.8972686 151.663672,39.2016941 151.663672,38.28375 C151.663672,37.365806 151.376863,36.6331721 150.803236,36.0858266 C150.229609,35.5384811 149.426544,35.2648124 148.394015,35.2648124 L144.96948,35.2648124 Z M166.184968,31.2623682 L166.184968,53.6692139 L160.953517,53.6692139 L160.953517,31.2623682 L166.184968,31.2623682 Z M173.702315,31.2623682 L178.107747,47.5800253 L178.262626,48.4010395 L178.365878,48.4010395 L178.520756,47.6484432 L182.995024,31.2623682 L188.467397,31.2623682 L181.170899,53.6692139 L175.50923,53.6692139 L168.229942,31.2623682 L173.702315,31.2623682 Z M204.279346,40.0711663 L204.279346,44.0736105 L195.434064,44.0736105 L195.434064,49.6667697 L205.84534,49.6667697 L205.84534,53.6692139 L190.185405,53.6692139 L190.185405,31.2623682 L205.879757,31.2623682 L205.879757,35.2648124 L195.434064,35.2648124 L195.434064,40.0711663 L204.279346,40.0711663 Z M222.311221,31.2623682 L226.320853,45.9551014 L226.406896,45.9551014 L229.366796,31.2623682 L234.42616,31.2623682 L229.263544,53.6692139 L224.324641,53.6692139 L220.538723,39.8488083 L220.435471,39.8488083 L216.68397,53.6692139 L211.762276,53.6692139 L206.565242,31.2623682 L211.641815,31.2623682 L214.601714,45.9551014 L214.704967,45.9551014 L218.680181,31.2623682 L222.311221,31.2623682 Z M248.895829,53.6692139 L247.605175,49.307576 L240.497974,49.307576 L239.224529,53.6692139 L233.958661,53.6692139 L241.237949,31.2623682 L246.865201,31.2623682 L254.161698,53.6692139 L248.895829,53.6692139 Z M244.008553,37.283139 L241.668167,45.3051318 L246.452191,45.3051318 L244.094597,37.283139 L244.008553,37.283139 Z M266.617947,53.6692139 L261.403705,53.6692139 L261.403705,45.5274898 L253.883494,31.2623682 L259.545163,31.2623682 L264.01943,41.0461207 L264.105474,41.0461207 L268.59695,31.2623682 L274.293036,31.2623682 L266.617947,45.7840568 L266.617947,53.6692139 Z M97.585257,81.0659737 L97.585257,81.0830781 C98.652203,81.0830781 99.4552685,80.8749759 99.9944778,80.4587652 C100.533687,80.0425546 100.803288,79.458158 100.803288,78.7055578 C100.803288,77.9529577 100.553764,77.3628597 100.054708,76.935246 C99.5556529,76.5076323 98.6005785,76.0372643 97.1894564,75.5241278 C94.1377615,74.5776762 91.9752207,73.588478 90.701769,72.5565036 C89.4283174,71.5245292 88.7916011,70.0763659 88.7916011,68.2119702 C88.7916011,66.3475745 89.6004029,64.8366954 91.2180306,63.6792876 C92.8356584,62.5218799 94.9150246,61.9431847 97.4561916,61.9431847 C99.9973586,61.9431847 102.059516,62.5817449 103.642726,63.8588845 C105.225937,65.1360241 105.988849,66.778036 105.931486,68.7849697 L105.897069,68.8875964 L100.820496,68.8875964 C100.820496,67.9639509 100.513611,67.2284663 99.8998298,66.6811208 C99.2860491,66.1337753 98.4543026,65.8601066 97.4045654,65.8601066 C96.3548283,65.8601066 95.5259499,66.0881638 94.9179054,66.5442851 C94.3098609,67.0004064 94.0058432,67.5591466 94.0058432,68.2205224 C94.0058432,68.8818983 94.2926524,69.4121313 94.8662792,69.8112374 C95.4399061,70.2103435 96.5871426,70.7177708 98.3080232,71.3335346 C100.992597,72.1203438 102.954371,73.0724826 104.193405,74.1899798 C105.432439,75.3074769 106.051947,76.8297588 106.051947,78.7568712 C106.051947,80.6839836 105.286167,82.2062656 103.754583,83.3237627 C102.222999,84.4412598 100.166578,85 97.585257,85 C95.8414313,85 94.2639811,84.7234806 92.852859,84.1704336 C91.4417369,83.6173865 90.3088409,82.7678734 89.4541368,81.6218687 C88.5994328,80.475864 88.1892957,79.1217742 88.2237134,77.5595589 L88.2409221,77.4740366 L93.3519119,77.4740366 C93.3519119,78.7397731 93.6932148,79.6548527 94.3758307,80.2193028 C95.0584467,80.7837528 96.1282447,81.0659737 97.585257,81.0659737 Z M122.913629,71.0427587 L122.913629,75.0452029 L114.068347,75.0452029 L114.068347,80.6383621 L124.479622,80.6383621 L124.479622,84.6408063 L108.819687,84.6408063 L108.819687,62.2339606 L124.51404,62.2339606 L124.51404,66.2364048 L114.068347,66.2364048 L114.068347,71.0427587 L122.913629,71.0427587 Z M132.065804,84.6065974 L126.817145,84.6065974 L126.817145,62.1997517 L135.490339,62.1997517 C138.11755,62.1997517 140.19118,62.7984019 141.711292,63.9957202 C143.231403,65.1930386 143.991447,66.8350505 143.991447,68.9218054 C143.991447,71.2138148 142.775376,72.8900353 140.343198,73.9505173 C141.696958,74.3382204 142.683581,74.9767806 143.303098,75.8662171 C143.922615,76.7556536 144.232369,77.9016411 144.232369,79.304214 L144.232369,80.7067799 C144.232369,81.4137679 144.329884,82.1207453 144.524917,82.8277333 C144.71995,83.5347213 145.018232,84.0364471 145.419771,84.332926 L145.419771,84.6408063 L140.016233,84.6408063 C139.350826,84.1162668 139.018127,82.8049378 139.018127,80.7067799 L139.018127,79.338423 C139.018127,78.266538 138.734186,77.4512334 138.166295,76.8924848 C137.598405,76.3337363 136.76379,76.0543662 135.662427,76.0543662 L132.065804,76.0201573 L132.065804,84.6065974 Z M132.065804,66.2364048 L132.065804,72.051922 L135.507548,72.051922 C136.563021,72.051922 137.368955,71.8153126 137.925373,71.3420868 C138.481791,70.868861 138.759996,70.1732865 138.759996,69.2553424 C138.759996,68.3373983 138.473187,67.6047645 137.89956,67.057419 C137.325933,66.5100734 136.522868,66.2364048 135.490339,66.2364048 L132.065804,66.2364048 Z M151.095785,62.2339606 L155.501217,78.5516177 L155.656095,79.3726319 L155.759348,79.3726319 L155.914226,78.6200355 L160.388493,62.2339606 L165.860866,62.2339606 L158.564369,84.6408063 L152.9027,84.6408063 L145.623412,62.2339606 L151.095785,62.2339606 Z M173.1545,62.2339606 L173.1545,84.6408063 L167.923049,84.6408063 L167.923049,62.2339606 L173.1545,62.2339606 Z M192.210293,82.9389123 C190.747545,84.3129776 188.622289,85 185.834462,85 C183.046636,85 180.783712,84.1504869 179.045622,82.4514351 C177.307533,80.7523833 176.438501,78.5402283 176.438501,75.8149037 L176.438501,71.128281 C176.438501,68.4029564 177.275984,66.1908014 178.950974,64.4917496 C180.625965,62.7926979 182.842999,61.9431847 185.602145,61.9431847 C188.36129,61.9431847 190.500886,62.6444607 192.020997,64.0470336 C193.541108,65.4496065 194.398668,67.4850172 194.593701,70.1533267 L194.559283,70.2559534 L189.465502,70.2559534 C189.396667,68.7507532 189.063968,67.6560786 188.467397,66.9718967 C187.870825,66.2877147 186.889937,65.9456289 185.524705,65.9456289 C184.343034,65.9456289 183.408036,66.4131462 182.719684,67.3481948 C182.031332,68.2832434 181.687161,69.5318567 181.687161,71.0940721 L181.687161,75.8149037 C181.687161,77.3885221 182.062881,78.6456875 182.814332,79.5864377 C183.565783,80.5271878 184.575351,80.9975558 185.843067,80.9975558 C187.110782,80.9975558 188.011363,80.6725743 188.544836,80.0226014 C189.078309,79.3726286 189.379458,78.3007597 189.448294,76.8069625 L194.524866,76.8069625 L194.559283,76.9095893 C194.456031,79.5550927 193.673042,81.5648469 192.210293,82.9389123 Z M211.403756,71.0427587 L211.403756,75.0452029 L202.558474,75.0452029 L202.558474,80.6383621 L212.96975,80.6383621 L212.96975,84.6408063 L197.309815,84.6408063 L197.309815,62.2339606 L213.004167,62.2339606 L213.004167,66.2364048 L202.558474,66.2364048 L202.558474,71.0427587 L211.403756,71.0427587 Z M224.049302,81.0659737 L224.049302,81.0830781 C225.116248,81.0830781 225.919313,80.8749759 226.458523,80.4587652 C226.997732,80.0425546 227.267332,79.458158 227.267332,78.7055578 C227.267332,77.9529577 227.017808,77.3628597 226.518753,76.935246 C226.019698,76.5076323 225.064623,76.0372643 223.653501,75.5241278 C220.601806,74.5776762 218.439265,73.588478 217.165814,72.5565036 C215.892362,71.5245292 215.255646,70.0763659 215.255646,68.2119702 C215.255646,66.3475745 216.064448,64.8366954 217.682075,63.6792876 C219.299703,62.5218799 221.379069,61.9431847 223.920236,61.9431847 C226.461403,61.9431847 228.523561,62.5817449 230.106771,63.8588845 C231.689981,65.1360241 232.452894,66.778036 232.395531,68.7849697 L232.361113,68.8875964 L227.284541,68.8875964 C227.284541,67.9639509 226.977655,67.2284663 226.363875,66.6811208 C225.750094,66.1337753 224.918347,65.8601066 223.86861,65.8601066 C222.818873,65.8601066 221.989995,66.0881638 221.38195,66.5442851 C220.773906,67.0004064 220.469888,67.5591466 220.469888,68.2205224 C220.469888,68.8818983 220.756697,69.4121313 221.330324,69.8112374 C221.903951,70.2103435 223.051187,70.7177708 224.772068,71.3335346 C227.456642,72.1203438 229.418416,73.0724826 230.65745,74.1899798 C231.896484,75.3074769 232.515992,76.8297588 232.515992,78.7568712 C232.515992,80.6839836 231.750212,82.2062656 230.218628,83.3237627 C228.687044,84.4412598 226.630623,85 224.049302,85 C222.305476,85 220.728026,84.7234806 219.316904,84.1704336 C217.905782,83.6173865 216.772886,82.7678734 215.918182,81.6218687 C215.063478,80.475864 214.65334,79.1217742 214.687758,77.5595589 L214.704967,77.4740366 L219.815957,77.4740366 C219.815957,78.7397731 220.157259,79.6548527 220.839875,80.2193028 C221.522491,80.7837528 222.592289,81.0659737 224.049302,81.0659737 Z" id="LANDSCAPING-&amp;-DRIVEW" fill="#3C3C3C"></path>
            </g>
        </g>
    </g>
</svg>