<?xml version="1.0" encoding="UTF-8"?>
<svg width="35px" height="35px" viewBox="0 0 35 35" version="1.1" xmlns="http://www.w3.org/2000/svg" xmlns:xlink="http://www.w3.org/1999/xlink">
    <!-- Generator: Sketch 51.1 (57501) - http://www.bohemiancoding.com/sketch -->
    <title>block-paving</title>
    <desc>Created with Sketch.</desc>
    <defs></defs>
    <g id="Site-design" stroke="none" stroke-width="1" fill="none" fill-rule="evenodd" fill-opacity="0.4">
        <g id="Homepage" transform="translate(-302.000000, -733.000000)" fill="#F4F4F8" fill-rule="nonzero">
            <g id="SERVICES" transform="translate(0.000000, 609.000000)">
                <g id="Icons" transform="translate(253.000000, 124.000000)">
                    <g id="row" transform="translate(19.000000, 0.000000)">
                        <g id="Block-paving">
                            <g id="block-paving" transform="translate(30.000000, 0.000000)">
                                <path d="M33.25,0 L1.75,0 C0.783945312,0.00102539063 0.00102539063,0.783945312 0,1.75 L0,33.25 C0.00102539063,34.2160547 0.783945312,34.9989746 1.75,35 L33.25,35 C34.2160547,34.9989746 34.9989746,34.2160547 35,33.25 L35,1.75 C34.9989746,0.783945312 34.2160547,0.00102539063 33.25,0 Z M33.8333105,33.25 C33.8331055,33.572041 33.572041,33.8331055 33.25,33.8333105 L1.75,33.8333105 C1.42795898,33.8331055 1.16689453,33.572041 1.16668945,33.25 L1.16668945,1.75 C1.16689453,1.42795898 1.42795898,1.16689453 1.75,1.16668945 L33.25,1.16668945 C33.572041,1.16689453 33.8331055,1.42795898 33.8333105,1.75 L33.8333105,33.25 Z" id="Shape"></path>
                                <path d="M32.0833105,2.33331055 L2.91668945,2.33331055 C2.76192383,2.33324219 2.61351563,2.39462891 2.50414063,2.50407227 C2.39476563,2.61351563 2.33331055,2.76192383 2.33337891,2.91662109 L2.33337891,32.0833105 C2.33331055,32.2380762 2.39469727,32.3864844 2.50414063,32.4958594 C2.61358398,32.6053027 2.76199219,32.6666895 2.91668945,32.6666211 L32.0833789,32.6666211 C32.2381445,32.6666895 32.3865527,32.6053027 32.4959277,32.4958594 C32.6053711,32.386416 32.6667578,32.2380078 32.6666895,32.0833105 L32.6666895,2.91668945 C32.6667578,2.76192383 32.6053711,2.61351563 32.4959277,2.50414063 C32.3864844,2.39469727 32.2380762,2.33324219 32.0833105,2.33331055 Z M20.4166895,3.5 L28.5833789,3.5 L28.5833789,4.95831055 L26.8333789,6.27081055 L24.8497949,4.78344727 C24.6427344,4.62738281 24.357334,4.62738281 24.1502734,4.78344727 L22.1666895,6.27081055 L20.4166895,4.95831055 L20.4166895,3.5 Z M12.483584,9.79986328 L14.5833789,11.375 L14.5833789,13.125 L12.8333789,14.4375 L10.8497949,12.9501367 C10.6427344,12.7940723 10.357334,12.7940723 10.1502734,12.9501367 L8.16668945,14.4375 L6.41668945,13.125 L6.41668945,11.375 L8.51648437,9.79986328 C8.66345703,9.68980469 8.75,9.51692383 8.75006836,9.33331055 L8.75006836,7.29162109 L10.5000684,5.97912109 L12.2500684,7.29162109 L12.2500684,9.33331055 C12.2500684,9.51692383 12.3366113,9.68980469 12.483584,9.79986328 Z M19.483584,13.8832422 L21.5833789,15.4583789 L21.5833789,17.2083789 L19.8333789,18.5208789 L17.8497949,17.0335156 C17.6427344,16.8774512 17.357334,16.8774512 17.1502734,17.0335156 L15.1666895,18.5208789 L13.4166895,17.2083789 L13.4166895,15.4583789 L15.5164844,13.8832422 C15.663457,13.7731836 15.75,13.6003027 15.7500684,13.4166895 L15.7500684,11.375 L17.5000684,10.0625 L19.2500684,11.375 L19.2500684,13.4166895 C19.2500684,13.6003027 19.3366113,13.7731836 19.483584,13.8832422 Z M8.51641602,17.9665527 C8.66338867,17.8564941 8.74993164,17.6836133 8.75,17.5 L8.75,15.4583105 L10.5,14.1458105 L12.25,15.4583105 L12.25,17.5 C12.2500684,17.6836133 12.3366113,17.8564941 12.483584,17.9665527 L14.5833789,19.5416895 L14.5833789,21.2916895 L12.8333789,22.6041895 L10.8497949,21.1168262 C10.6427344,20.9607617 10.357334,20.9607617 10.1502734,21.1168262 L8.16668945,22.6041895 L6.41668945,21.2916895 L6.41668945,19.5416895 L8.51641602,17.9665527 Z M13.4166895,23.625 L15.5164844,22.0498633 C15.663457,21.9398047 15.75,21.7669238 15.7500684,21.5833105 L15.7500684,19.5416211 L17.5000684,18.2291211 L19.2500684,19.5416211 L19.2500684,21.5833105 C19.2501367,21.7669238 19.3366797,21.9398047 19.4836523,22.0498633 L21.5834473,23.625 L21.5834473,25.375 L19.8334473,26.6875 L17.8498633,25.2001367 C17.6428027,25.0440723 17.3574023,25.0440723 17.1503418,25.2001367 L15.1666895,26.6875 L13.4166895,25.375 L13.4166895,23.625 Z M20.4166895,21.2916895 L20.4166895,19.5416895 L22.5164844,17.9665527 C22.663457,17.8564941 22.75,17.6836133 22.7500684,17.5 L22.7500684,15.4583105 L24.5000684,14.1458105 L26.2500684,15.4583105 L26.2500684,17.5 C26.2501367,17.6836133 26.3366797,17.8564941 26.4836523,17.9665527 L28.5834473,19.5416895 L28.5834473,21.2916895 L26.8334473,22.6041895 L24.8498633,21.1168262 C24.6428027,20.9607617 24.3574023,20.9607617 24.1503418,21.1168262 L22.1667578,22.6041895 L20.4166895,21.2916895 Z M24.8497949,12.9501367 C24.6427344,12.7940723 24.357334,12.7940723 24.1502734,12.9501367 L22.1666895,14.4375 L20.4166895,13.125 L20.4166895,11.375 L22.5164844,9.79986328 C22.663457,9.68980469 22.75,9.51692383 22.7500684,9.33331055 L22.7500684,7.29162109 L24.5000684,5.97912109 L26.2500684,7.29162109 L26.2500684,9.33331055 C26.2501367,9.51692383 26.3366797,9.68980469 26.4836523,9.79986328 L28.5834473,11.375 L28.5834473,13.125 L26.8334473,14.4375 L24.8497949,12.9501367 Z M15.75,5.25 L15.75,3.5 L19.25,3.5 L19.25,5.25 C19.2500684,5.43361328 19.3366113,5.60649414 19.483584,5.71655273 L21.5833789,7.29168945 L21.5833789,9.04168945 L19.8333789,10.3541895 L17.8497949,8.86682617 C17.6427344,8.71076172 17.357334,8.71076172 17.1502734,8.86682617 L15.1666895,10.3541895 L13.4166895,9.04168945 L13.4166895,7.29168945 L15.5164844,5.71655273 C15.6633887,5.60649414 15.7499316,5.43361328 15.75,5.25 Z M6.41668945,3.5 L14.5833789,3.5 L14.5833789,4.95831055 L12.8333789,6.27081055 L10.8497949,4.78344727 C10.6427344,4.62738281 10.357334,4.62738281 10.1502734,4.78344727 L8.16668945,6.27081055 L6.41668945,4.95831055 L6.41668945,3.5 Z M3.5,3.5 L5.25,3.5 L5.25,5.25 C5.25006836,5.43361328 5.33661133,5.60649414 5.48358398,5.71655273 L7.58337891,7.29168945 L7.58337891,9.04168945 L5.83337891,10.3541895 L3.84979492,8.86682617 C3.7490332,8.79081055 3.62625977,8.74972656 3.5,8.74972656 L3.5,3.5 Z M3.5,10.0625 L5.25,11.375 L5.25,13.4166895 C5.25006836,13.6003027 5.33661133,13.7731836 5.48358398,13.8832422 L7.58337891,15.4583789 L7.58337891,17.2083789 L5.83337891,18.5208789 L3.84979492,17.0335156 C3.7490332,16.9575 3.62625977,16.916416 3.5,16.916416 L3.5,10.0625 Z M3.5,18.2291895 L5.25,19.5416895 L5.25,21.5833789 C5.25006836,21.7669922 5.33661133,21.939873 5.48358398,22.0499316 L7.58337891,23.6250684 L7.58337891,25.3750684 L5.83337891,26.6875684 L3.84979492,25.2002051 C3.7490332,25.1241895 3.62625977,25.0831055 3.5,25.0831055 L3.5,18.2291895 Z M3.5,31.5 L3.5,26.3958105 L5.25,27.7083105 L5.25,29.75 C5.25006836,29.9336133 5.33661133,30.1064941 5.48358398,30.2165527 L7.19455078,31.5 L3.5,31.5 Z M9.13862305,31.5 L10.5,30.4791895 L11.861377,31.5 L9.13862305,31.5 Z M10.8497949,29.2834473 C10.6425977,29.1277246 10.3574023,29.1277246 10.1502734,29.2834473 L8.16668945,30.7708105 L6.41668945,29.4583105 L6.41668945,27.7083105 L8.51648438,26.1331738 C8.66345703,26.0231152 8.75,25.8502344 8.75006836,25.6666211 L8.75006836,23.625 L10.5000684,22.3125 L12.2500684,23.625 L12.2500684,25.6666895 C12.2501367,25.8503027 12.3366797,26.0231836 12.4836523,26.1332422 L14.5834473,27.7083789 L14.5834473,29.4583789 L12.8334473,30.7708789 L10.8497949,29.2834473 Z M13.8055176,31.5 L15.5164844,30.2165527 C15.663457,30.1064941 15.75,29.9336133 15.7500684,29.75 L15.7500684,27.7083105 L17.5000684,26.3958105 L19.2500684,27.7083105 L19.2500684,29.75 C19.2501367,29.9336133 19.3366797,30.1064941 19.4836523,30.2165527 L21.1946191,31.5 L13.8055176,31.5 Z M23.138623,31.5 L24.5,30.4791895 L25.861377,31.5 L23.138623,31.5 Z M24.8497949,29.2834473 C24.6425977,29.1277246 24.3574707,29.1277246 24.1502734,29.2834473 L22.1666895,30.7708105 L20.4166895,29.4583105 L20.4166895,27.7083105 L22.5164844,26.1331738 C22.663457,26.0231152 22.75,25.8502344 22.7500684,25.6666211 L22.7500684,23.625 L24.5000684,22.3125 L26.2500684,23.625 L26.2500684,25.6666895 C26.2501367,25.8503027 26.3366797,26.0231836 26.4836523,26.1332422 L28.5834473,27.7083789 L28.5834473,29.4583789 L26.8334473,30.7708789 L24.8497949,29.2834473 Z M31.5,31.5 L27.8055176,31.5 L29.516416,30.2165527 C29.6633887,30.1064941 29.7499316,29.9336133 29.75,29.75 L29.75,27.7083105 L31.5,26.3958105 L31.5,31.5 Z M31.5,25.0830371 C31.3738086,25.0830371 31.2509668,25.1241211 31.1502051,25.2001367 L29.1666895,26.6875 L27.4166895,25.375 L27.4166895,23.625 L29.5164844,22.0498633 C29.663457,21.9398047 29.75,21.7669238 29.7500684,21.5833105 L29.7500684,19.5416211 L31.5000684,18.2291211 L31.5000684,25.0830371 L31.5,25.0830371 Z M31.5,16.916416 C31.3738086,16.916416 31.2509668,16.9575 31.1502051,17.0334473 L29.1666211,18.5208105 L27.4166211,17.2083105 L27.4166211,15.4583105 L29.516416,13.8831738 C29.6633887,13.7731152 29.7499316,13.6002344 29.75,13.4166211 L29.75,11.375 L31.5,10.0625 L31.5,16.916416 Z M31.5,8.74972656 C31.3738086,8.74972656 31.2509668,8.79081055 31.1502051,8.86675781 L29.1666211,10.3541211 L27.4166211,9.04162109 L27.4166211,7.29162109 L29.516416,5.71648438 C29.6633887,5.60642578 29.7499316,5.43354492 29.75,5.24993164 L29.75,3.5 L31.5,3.5 L31.5,8.74972656 Z" id="Shape"></path>
                            </g>
                        </g>
                    </g>
                </g>
            </g>
        </g>
    </g>
</svg>