<?xml version="1.0" encoding="UTF-8"?>
<svg width="26px" height="35px" viewBox="0 0 26 35" version="1.1" xmlns="http://www.w3.org/2000/svg" xmlns:xlink="http://www.w3.org/1999/xlink">
    <!-- Generator: Sketch 51.1 (57501) - http://www.bohemiancoding.com/sketch -->
    <title>brickwork</title>
    <desc>Created with Sketch.</desc>
    <defs></defs>
    <g id="Site-design" stroke="none" stroke-width="1" fill="none" fill-rule="evenodd" fill-opacity="0.4">
        <g id="Homepage" transform="translate(-467.000000, -921.000000)" fill="#F4F4F8" fill-rule="nonzero">
            <g id="SERVICES" transform="translate(0.000000, 609.000000)">
                <g id="Icons" transform="translate(253.000000, 124.000000)">
                    <g id="row" transform="translate(189.000000, 188.000000)">
                        <g id="Brickwork">
                            <g id="brickwork" transform="translate(25.000000, 0.000000)">
                                <path d="M20.628709,25.174267 C20.628709,25.1129978 20.628709,25.1129978 20.628709,25.0517287 L23.9372429,25.0517287 C24.6724726,25.0517287 25.2851641,24.4390372 25.2851641,23.7038074 L25.2851641,20.2114661 C25.2851641,19.4762363 24.6724726,18.8635449 23.9372429,18.8635449 L20.628709,18.8635449 C20.628709,18.8022757 20.628709,18.8022757 20.628709,18.7410066 L20.628709,15.2486652 C20.628709,14.5134354 20.0160175,13.900744 19.2807877,13.900744 L11.0707221,13.900744 C10.7643764,13.900744 10.5192998,13.9620131 10.3354923,14.1458206 C10.0904158,14.0232823 9.84533917,13.900744 9.60026258,13.900744 L1.39019694,13.900744 C0.654967177,13.900744 0.0422757112,14.5134354 0.0422757112,15.2486652 L0.0422757112,18.7410066 C0.0422757112,19.4762363 0.654967177,20.0889278 1.39019694,20.0889278 L4.69873085,20.0889278 C4.69873085,20.1501969 4.69873085,20.1501969 4.69873085,20.2114661 L4.69873085,23.7038074 C4.69873085,23.7650766 4.69873085,23.7650766 4.69873085,23.8263457 L1.39019694,23.8263457 C0.654967177,23.8263457 0.0422757112,24.4390372 0.0422757112,25.174267 L0.0422757112,28.6666083 C0.0422757112,29.4018381 0.654967177,30.0145295 1.39019694,30.0145295 L4.69873085,30.0145295 C4.69873085,30.0757987 4.69873085,30.0757987 4.69873085,30.1370678 L4.69873085,33.6294092 C4.69873085,34.3646389 5.31142232,34.9773304 6.04665208,34.9773304 L14.2567177,34.9773304 C14.5630635,34.9773304 14.80814,34.9160613 14.9919475,34.7322538 C15.2370241,34.8547921 15.4821007,34.9773304 15.7271772,34.9773304 L23.9372429,34.9773304 C24.6724726,34.9773304 25.2851641,34.3646389 25.2851641,33.6294092 L25.2851641,30.1370678 C25.2851641,29.4018381 24.6724726,28.7891466 23.9372429,28.7891466 L20.628709,28.7891466 C20.628709,28.7278775 20.628709,28.7278775 20.628709,28.6666083 L20.628709,25.174267 Z M11.0707221,15.0648578 L19.2807877,15.0648578 C19.3420569,15.0648578 19.403326,15.1261269 19.403326,15.1873961 L19.403326,18.6797374 C19.403326,18.7410066 19.3420569,18.8022757 19.2807877,18.8022757 L15.7271772,18.8022757 L14.2567177,18.8022757 L11.1319912,18.8022757 C11.0707221,18.8022757 11.009453,18.7410066 11.009453,18.6797374 L11.009453,15.1873961 C10.9481838,15.1261269 11.009453,15.0648578 11.0707221,15.0648578 Z M11.0707221,20.1501969 L14.1954486,20.1501969 C14.2567177,20.1501969 14.3179869,20.2114661 14.3179869,20.2727352 L14.3179869,23.7650766 C14.3179869,23.8263457 14.2567177,23.8876149 14.1954486,23.8876149 L11.0707221,23.8876149 L9.60026258,23.8876149 L6.04665208,23.8876149 C5.98538293,23.8876149 5.92411379,23.8263457 5.92411379,23.7650766 L5.92411379,20.2727352 C5.92411379,20.2114661 5.98538293,20.1501969 6.04665208,20.1501969 L9.60026258,20.1501969 L11.0707221,20.1501969 Z M1.39019694,18.8635449 C1.32892779,18.8635449 1.26765864,18.8022757 1.26765864,18.7410066 L1.26765864,15.2486652 C1.26765864,15.1873961 1.32892779,15.1261269 1.39019694,15.1261269 L9.60026258,15.1261269 C9.66153173,15.1261269 9.72280088,15.1873961 9.72280088,15.2486652 L9.72280088,18.7410066 C9.72280088,18.8022757 9.66153173,18.8635449 9.60026258,18.8635449 L6.04665208,18.8635449 L1.39019694,18.8635449 Z M1.39019694,28.9116849 C1.32892779,28.9116849 1.26765864,28.8504158 1.26765864,28.7891466 L1.26765864,25.2968053 C1.26765864,25.2355361 1.32892779,25.174267 1.39019694,25.174267 L6.04665208,25.174267 L9.60026258,25.174267 C9.66153173,25.174267 9.72280088,25.2355361 9.72280088,25.2968053 L9.72280088,28.7891466 C9.72280088,28.8504158 9.66153173,28.9116849 9.60026258,28.9116849 L6.04665208,28.9116849 L1.39019694,28.9116849 Z M14.2567177,33.9357549 L6.04665208,33.9357549 C5.98538293,33.9357549 5.92411379,33.8744858 5.92411379,33.8132166 L5.92411379,30.3208753 C5.92411379,30.2596061 5.98538293,30.198337 6.04665208,30.198337 L9.60026258,30.198337 L11.0707221,30.198337 L14.1954486,30.198337 C14.2567177,30.198337 14.3179869,30.2596061 14.3179869,30.3208753 L14.3179869,33.8132166 C14.379256,33.8744858 14.3179869,33.9357549 14.2567177,33.9357549 Z M14.2567177,28.8504158 L11.1319912,28.8504158 C11.0707221,28.8504158 11.009453,28.7891466 11.009453,28.7278775 L11.009453,25.2355361 C11.009453,25.174267 11.0707221,25.1129978 11.1319912,25.1129978 L14.2567177,25.1129978 L15.7271772,25.1129978 L19.2807877,25.1129978 C19.3420569,25.1129978 19.403326,25.174267 19.403326,25.2355361 L19.403326,28.7278775 C19.403326,28.7891466 19.3420569,28.8504158 19.2807877,28.8504158 L15.7271772,28.8504158 L14.2567177,28.8504158 Z M23.9372429,30.1370678 C23.998512,30.1370678 24.0597812,30.198337 24.0597812,30.2596061 L24.0597812,33.7519475 C24.0597812,33.8132166 23.998512,33.8744858 23.9372429,33.8744858 L15.7271772,33.8744858 C15.6659081,33.8744858 15.6046389,33.8132166 15.6046389,33.7519475 L15.6046389,30.2596061 C15.6046389,30.198337 15.6659081,30.1370678 15.7271772,30.1370678 L19.2807877,30.1370678 L23.9372429,30.1370678 Z M19.2807877,23.8876149 L15.7271772,23.8876149 C15.6659081,23.8876149 15.6046389,23.8263457 15.6046389,23.7650766 L15.6046389,20.2727352 C15.6046389,20.2114661 15.6659081,20.1501969 15.7271772,20.1501969 L19.2807877,20.1501969 L23.9372429,20.1501969 C23.998512,20.1501969 24.0597812,20.2114661 24.0597812,20.2727352 L24.0597812,23.7650766 C24.0597812,23.8263457 23.998512,23.8876149 23.9372429,23.8876149 L19.2807877,23.8876149 Z" id="Shape"></path>
                                <path d="M13.3989497,12.1239387 L11.5608753,5.07798687 C11.4996061,4.89417943 11.3157987,4.71037199 11.1319912,4.64910284 C10.9481838,4.5878337 10.7031072,4.64910284 10.5192998,4.83291028 L8.98757112,6.3033698 L8.98757112,5.26179431 C8.98757112,5.07798687 8.92630197,4.89417943 8.74249453,4.77164114 L8.06853392,4.22021882 C8.3136105,3.6687965 8.19107221,3.05610503 7.76218818,2.62722101 L5.25015317,0.360262582 C4.69873085,-0.129890591 3.8409628,-0.129890591 3.35080963,0.421531729 L3.22827133,0.544070022 C2.73811816,1.09549234 2.73811816,1.95326039 3.28954048,2.44341357 L5.80157549,4.71037199 C6.04665208,4.95544858 6.35299781,5.07798687 6.72061269,5.07798687 L6.78188184,5.07798687 C6.90442013,5.07798687 7.02695842,5.01671772 7.14949672,5.01671772 L7.76218818,5.5068709 L7.76218818,7.46748359 L5.43396061,9.79571116 C5.25015317,9.91824945 5.18888403,10.163326 5.25015317,10.4084026 C5.31142232,10.6534792 5.43396061,10.7760175 5.6790372,10.8372867 L12.6024508,12.9204376 C12.6637199,12.9204376 12.7249891,12.9204376 12.7862582,12.9204376 C12.9700656,12.9204376 13.0926039,12.8591685 13.2151422,12.7366302 C13.3989497,12.5528228 13.4602188,12.3690153 13.3989497,12.1239387 Z M6.90442013,3.73006565 L6.78188184,3.85260394 C6.72061269,3.91387309 6.65934354,3.91387309 6.65934354,3.91387309 C6.65934354,3.91387309 6.5980744,3.91387309 6.53680525,3.85260394 L4.08603939,1.58564551 C4.02477024,1.52437637 4.02477024,1.46310722 4.08603939,1.40183807 L4.20857768,1.27929978 C4.26984683,1.21803063 4.33111597,1.21803063 4.39238512,1.27929978 L6.90442013,3.54625821 C6.96568928,3.60752735 6.96568928,3.6687965 6.90442013,3.73006565 Z M7.02695842,9.91824945 L8.37487965,8.57032823 L9.66153173,9.79571116 C9.78407002,9.91824945 9.90660832,9.9795186 10.0904158,9.9795186 C10.2742232,9.9795186 10.3967615,9.91824945 10.5192998,9.79571116 C10.7643764,9.55063457 10.7643764,9.18301969 10.5192998,8.93794311 L9.2326477,7.77382932 L10.5805689,6.4259081 L11.9284902,11.388709 L7.02695842,9.91824945 Z" id="Shape"></path>
                            </g>
                        </g>
                    </g>
                </g>
            </g>
        </g>
    </g>
</svg>