<?xml version="1.0" encoding="UTF-8"?>
<svg width="35px" height="35px" viewBox="0 0 35 35" version="1.1" xmlns="http://www.w3.org/2000/svg" xmlns:xlink="http://www.w3.org/1999/xlink">
    <!-- Generator: Sketch 51.1 (57501) - http://www.bohemiancoding.com/sketch -->
    <title>brick-walls</title>
    <desc>Created with Sketch.</desc>
    <defs></defs>
    <g id="Site-design" stroke="none" stroke-width="1" fill="none" fill-rule="evenodd" fill-opacity="0.4">
        <g id="Homepage" transform="translate(-623.000000, -827.000000)" fill="#F4F4F8" fill-rule="nonzero">
            <g id="SERVICES" transform="translate(0.000000, 609.000000)">
                <g id="Icons" transform="translate(253.000000, 124.000000)">
                    <g id="row" transform="translate(0.000000, 94.000000)">
                        <g id="Brick-walls" transform="translate(347.000000, 0.000000)">
                            <g id="brick-walls" transform="translate(23.000000, 0.000000)">
                                <path d="M34.3028027,16.8028027 L26.5171484,16.8028027 L26.5171484,9.2031543 C26.5171484,8.8181543 26.2050195,8.50595703 25.8199512,8.50595703 L18.2204395,8.50595703 L18.2204395,0.697197266 C18.2204395,0.312197266 17.9083105,0 17.5232422,0 L0.697197266,0 C0.312128906,0 0,0.312197266 0,0.697197266 L0,34.3028027 C0,34.6878027 0.312128906,35 0.697197266,35 L34.3028027,35 C34.6878711,35 35,34.6878027 35,34.3028027 L35,17.5 C35,17.115 34.6878711,16.8028027 34.3028027,16.8028027 Z M25.1227539,9.90041992 L25.1227539,16.8028027 L9.87717773,16.8028027 L9.87717773,9.90041992 L25.1227539,9.90041992 Z M1.39439453,1.39439453 L16.8259766,1.39439453 L16.8259766,8.50595703 L1.39439453,8.50595703 L1.39439453,1.39439453 Z M1.39439453,9.90041992 L8.48271484,9.90041992 L8.48271484,16.8028027 L1.39439453,16.8028027 L1.39439453,9.90041992 Z M1.39439453,18.1971973 L16.8259766,18.1971973 L16.8259766,25.1460645 L1.39439453,25.1460645 L1.39439453,18.1971973 Z M8.4827832,33.6056055 L1.39439453,33.6056055 L1.39439453,26.5405273 L8.4827832,26.5405273 L8.4827832,33.6056055 Z M25.1228223,33.6056055 L9.87717773,33.6056055 L9.87717773,26.5405273 L25.1228223,26.5405273 L25.1228223,33.6056055 Z M33.6056055,33.6056055 L26.5172168,33.6056055 L26.5172168,26.5405273 L28.7948145,26.5405273 C29.1798828,26.5405273 29.4920117,26.2283301 29.4920117,25.8433301 C29.4920117,25.4583301 29.1798828,25.1461328 28.7948145,25.1461328 L18.2204395,25.1461328 L18.2204395,18.1971973 L33.6056055,18.1971973 L33.6056055,33.6056055 Z" id="Shape"></path>
                                <path d="M31.723125,25.1461328 L31.3047656,25.1461328 C30.9196973,25.1461328 30.6075684,25.4583301 30.6075684,25.8433301 C30.6075684,26.2283301 30.9196973,26.5405273 31.3047656,26.5405273 L31.723125,26.5405273 C32.1081934,26.5405273 32.4203223,26.2283301 32.4203223,25.8433301 C32.4203223,25.4583301 32.1081934,25.1461328 31.723125,25.1461328 Z" id="Shape"></path>
                            </g>
                        </g>
                    </g>
                </g>
            </g>
        </g>
    </g>
</svg>