<?xml version="1.0" encoding="UTF-8"?>
<svg width="35px" height="35px" viewBox="0 0 35 35" version="1.1" xmlns="http://www.w3.org/2000/svg" xmlns:xlink="http://www.w3.org/1999/xlink">
    <!-- Generator: Sketch 51.1 (57501) - http://www.bohemiancoding.com/sketch -->
    <title>cobble-driveways</title>
    <desc>Created with Sketch.</desc>
    <defs></defs>
    <g id="Site-design" stroke="none" stroke-width="1" fill="none" fill-rule="evenodd" fill-opacity="0.4">
        <g id="Homepage" transform="translate(-783.000000, -733.000000)" fill="#F4F4F8" fill-rule="nonzero">
            <g id="SERVICES" transform="translate(0.000000, 609.000000)">
                <g id="Icons" transform="translate(253.000000, 124.000000)">
                    <g id="row" transform="translate(19.000000, 0.000000)">
                        <g id="Cobble-driveways" transform="translate(464.000000, 0.000000)">
                            <g id="cobble-driveways" transform="translate(47.000000, 0.000000)">
                                <path d="M33.25,0 L1.75,0 C0.783945312,0.00102539063 0.00102539063,0.783945312 0,1.75 L0,33.25 C0.00102539063,34.2160547 0.783945312,34.9989746 1.75,35 L33.25,35 C34.2160547,34.9989746 34.9989746,34.2160547 35,33.25 L35,1.75 C34.9989746,0.783945312 34.2160547,0.00102539063 33.25,0 Z M33.8333105,33.25 C33.8331055,33.572041 33.572041,33.8331055 33.25,33.8333105 L1.75,33.8333105 C1.42795898,33.8331055 1.16689453,33.572041 1.16668945,33.25 L1.16668945,1.75 C1.16689453,1.42795898 1.42795898,1.16689453 1.75,1.16668945 L33.25,1.16668945 C33.572041,1.16689453 33.8331055,1.42795898 33.8333105,1.75 L33.8333105,33.25 Z" id="Shape"></path>
                                <path d="M32.0833105,2.33331055 L2.91668945,2.33331055 C2.76192383,2.33324219 2.61351563,2.39462891 2.50414063,2.50407227 C2.39476563,2.61351563 2.33331055,2.76192383 2.33337891,2.91662109 L2.33337891,32.0833105 C2.33331055,32.2380762 2.39469727,32.3864844 2.50414063,32.4958594 C2.61358398,32.6053027 2.76199219,32.6666895 2.91668945,32.6666211 L32.0833789,32.6666211 C32.2381445,32.6666895 32.3865527,32.6053027 32.4959277,32.4958594 C32.6053711,32.386416 32.6667578,32.2380078 32.6666895,32.0833105 L32.6666895,2.91668945 C32.6667578,2.76192383 32.6053711,2.61351563 32.4959277,2.50414063 C32.3864844,2.39469727 32.2380762,2.33324219 32.0833105,2.33331055 Z M24.232168,3.5 L26.367373,5.99169922 C27.1049707,6.85049805 27.6680469,7.84485352 28.0250879,8.91918945 L28.3839746,9.99639648 C28.4825488,10.2899316 28.4597852,10.6106738 28.3207422,10.8873242 L27.4291992,12.670957 C27.2179004,13.1037402 26.7593457,13.3590625 26.2802148,13.3106641 L21.0529785,12.8355664 C21.0130566,12.8356348 20.9732715,12.8399414 20.9343066,12.848418 C20.7738672,12.6263867 20.5754883,12.4344336 20.3483301,12.2813086 L18.6029785,11.117627 C18.9959766,10.8568359 19.3005859,10.4829785 19.476748,10.0454102 L20.030459,8.65826172 C20.3179785,7.94588867 20.2345801,7.13740234 19.8077441,6.49865234 L19.6710254,6.29131836 C19.5860547,6.1662207 19.4891211,6.04966797 19.3816602,5.94323242 L21.8248926,3.5 L24.232168,3.5 Z M19.7330957,20.6582031 L18.8058691,19.7309766 C18.8883105,19.6467578 18.9642578,19.5564551 19.032959,19.460752 L20.7106348,16.9445801 C20.879209,16.6909668 20.9966504,16.4069336 21.0563965,16.1083398 L21.3423438,14.6801758 C21.3838379,14.4683984 21.3958691,14.2519043 21.3780273,14.0369141 L26.1741895,14.4728418 C26.2471289,14.4791309 26.3194531,14.4825488 26.3912305,14.4825488 C26.5583691,14.4808398 26.7247559,14.4611523 26.8876562,14.4238965 L27.3658984,17.772959 C27.4160742,18.1177637 27.5421973,18.4471875 27.7350391,18.737373 L28.279043,19.5537207 C28.3491113,19.6545508 28.4269043,19.749707 28.511875,19.8383691 L26.7950977,23.2718555 C26.5985645,23.6681348 26.1938086,23.9181934 25.7515234,23.9166895 L24.7546387,23.9166895 C24.2806348,23.9173047 23.8114844,23.8209863 23.3760352,23.6335449 L20.4166211,22.3655469 L20.4166211,22.3079883 C20.4149805,21.6894727 20.1693652,21.0965918 19.7330957,20.6582031 Z M11.7834473,17.8503418 L10.618125,16.2967383 C10.9191113,15.8966309 11.0823535,15.4097754 11.0833105,14.9091113 L11.0833105,13.7079687 C11.1375879,13.7117969 11.1915234,13.7179492 11.2462109,13.7179492 C11.4645508,13.7180859 11.6817969,13.6875977 11.8916602,13.627373 L14.6209082,12.8446582 C14.6952832,12.8246973 14.7684961,12.8007715 14.8402051,12.7728809 C14.8482031,12.7694629 14.9045996,12.7484082 14.9119824,12.7449902 L17.3641016,11.6938281 L19.7011035,13.2520117 C20.0954688,13.5132813 20.2921387,13.9874902 20.198418,14.4511719 L19.9124707,15.8793359 C19.8825293,16.0288379 19.8236719,16.1710938 19.7393164,16.2980371 L18.0622559,18.8136621 C17.8671582,19.1079492 17.5486719,19.2973047 17.1969629,19.3280664 L12.25,19.7777344 L12.25,19.25 C12.2486328,18.7455078 12.0850488,18.2547559 11.7834473,17.8503418 Z M12.2330469,20.9510547 L17.3029199,20.4901758 C17.4756641,20.4743164 17.6461523,20.4394531 17.8112402,20.3861328 L18.9082031,21.4830957 C19.1262012,21.7023926 19.249043,21.9987305 19.25,22.3079883 L19.25,23.5037305 C19.2496582,23.6848145 19.2075488,23.8633691 19.1269531,24.0255176 L18.045166,26.1884766 C17.8486328,26.5847559 17.443877,26.8348828 17.0015234,26.8333105 L13.8296484,26.8333105 C13.6299023,26.8300977 13.4337109,26.780332 13.2565918,26.6880469 L10.8895801,25.7753125 C10.7989355,25.3302246 10.5794336,24.9215723 10.258418,24.6002148 L9.4824707,23.8242676 L11.2547559,22.5836133 C11.7979395,22.2030566 12.1535449,21.6094922 12.2330469,20.9510547 Z M12.8333105,5.10870117 L12.8333105,3.5 L20.1751074,3.5 L18.3410254,5.33408203 C18.1410742,5.27891602 17.9346973,5.25068359 17.7272266,5.25 L12.8190918,5.25 C12.8220996,5.20262695 12.8333105,5.15634766 12.8333105,5.10870117 Z M12.4295117,6.41668945 L17.7273633,6.41668945 C18.1174219,6.41614258 18.4819141,6.6109668 18.6980664,6.93567383 L18.8359473,7.1447168 C19.0498438,7.46375 19.0916797,7.86816406 18.9475781,8.22424805 L18.3927051,9.61365234 C18.2784766,9.89959961 18.0553516,10.1285352 17.7723438,10.2499414 L14.4837109,11.6604687 L14.4284766,11.6809766 C14.3924512,11.6957422 14.3555371,11.708252 14.3179395,11.7185742 L11.5710547,12.5058691 C11.0625977,12.6455273 10.5229004,12.4335449 10.2454297,11.9851758 L9.55807617,11.1463379 C9.79104492,10.7784277 9.91539063,10.352207 9.91675781,9.91668945 L9.91675781,9.47460937 C9.91771484,9.16541992 10.0405566,8.86901367 10.2585547,8.6497168 L12.1498535,6.75841797 C12.2537598,6.65375977 12.3474121,6.53932617 12.4295117,6.41668945 Z M3.5,3.5 L11.6666895,3.5 L11.6666895,5.10870117 C11.6657324,5.41789062 11.5428906,5.71429687 11.3248926,5.93359375 L9.43359375,7.82489258 C8.99732422,8.26328125 8.75164063,8.85616211 8.75,9.47460937 L8.75,9.91668945 C8.74917969,10.5607031 8.22732422,11.0824902 7.58331055,11.0833789 L6.31811523,11.0833789 C6.10661133,11.0833789 5.89907227,11.0258887 5.71771484,10.9170605 L3.5,9.58637695 L3.5,3.5 Z M3.5,10.947002 L5.11724609,11.9173633 C5.47996094,12.1350879 5.89503906,12.2500684 6.31811523,12.2500684 L7.58331055,12.2500684 C7.97794922,12.2474707 8.36527344,12.1435645 8.70823242,11.9483301 L9.30883789,12.6784766 C9.47556641,12.9285352 9.68905273,13.1440039 9.93760742,13.3129883 C9.92735352,13.3468262 9.9203125,13.3815527 9.91668945,13.4167578 L9.91668945,14.9091797 C9.91757813,15.263623 9.75618164,15.5990625 9.47857422,15.8195215 L7.6978125,17.2448145 C7.49082031,17.4099023 7.23399414,17.4998633 6.96923828,17.5 L3.5,17.5 L3.5,10.947002 Z M3.5,18.6666895 L6.96923828,18.6666895 C7.49895508,18.6662109 8.01288086,18.486084 8.42700195,18.1557031 L9.75666016,17.0918945 L10.8497949,18.5493164 C11.0006641,18.7518652 11.0825586,18.9974805 11.0833789,19.25 L11.0833789,20.6724219 C11.0829688,21.0528418 10.8974414,21.4091992 10.5860645,21.6277441 L5.95068359,24.8725586 C5.75476563,25.0100293 5.52125,25.0836523 5.28192383,25.0833105 L3.5,25.0833117 L3.5,18.6666895 Z M9.43359375,31.2584863 L9.67510742,31.5 L3.5,31.5 L3.5,26.25 L5.28192383,26.25 C5.76057617,26.2506836 6.22774414,26.1034375 6.61951172,25.8284277 L8.51210937,24.5035547 L9.43359375,25.4251074 C9.88818359,25.8810645 9.88818359,26.6188672 9.43359375,27.0748242 C8.99732422,27.5132129 8.75164063,28.1060938 8.75,28.724541 L8.75,29.6086328 C8.75164063,30.2272168 8.99732422,30.8200977 9.43359375,31.2584863 Z M17.2086523,31.5 L11.3248926,31.5 L10.2584863,30.4335938 C10.0404883,30.2142969 9.91764648,29.917959 9.91668945,29.6087012 L9.91668945,28.7246094 C9.91764648,28.4154199 10.0404883,28.1190137 10.2584863,27.8997168 C10.5102539,27.6447363 10.6990625,27.3345215 10.8100098,26.9938184 L12.7866211,27.7539063 C13.1106445,27.9153711 13.4676172,27.9996582 13.8296484,28 L17.0015234,28 C17.2290234,27.9996582 17.455293,27.9662988 17.6731543,27.9008789 L18.5566992,29.6679688 C18.5599805,29.6745313 18.5653125,29.68 18.5687305,29.6865625 L17.2086523,31.5 Z M18.666416,31.5 L19.3554102,30.5813184 L20.5035059,31.5 L18.666416,31.5 Z M22.3717676,31.5 L19.914248,29.5341211 C19.782793,29.4286426 19.6755371,29.2961621 19.5997949,29.1456348 L18.6731836,27.2919336 C18.8406641,27.1204883 18.9808008,26.9242969 19.0888086,26.710332 L20.1705957,24.5467578 C20.309707,24.2595801 20.3885254,23.9469727 20.4021289,23.6282129 L22.9163867,24.7056934 C23.4969629,24.9556836 24.1225879,25.0841992 24.754707,25.0833789 L25.7515918,25.0833789 C25.997207,25.0823535 26.2410449,25.0427051 26.4743555,24.9658691 L28.8249609,27.3164746 C28.8879883,27.3743066 28.9542969,27.428584 29.0234766,27.4788965 L26.5101074,31.5 L22.3717676,31.5 Z M31.5,31.5 L27.8857031,31.5 L30.0968555,27.9621289 C30.2214746,27.985166 30.3478711,27.9978125 30.4746094,28 L31.5,28 L31.5,31.5 Z M31.5,26.8333105 L30.4746094,26.8333105 C30.1654199,26.8323535 29.8690137,26.7095117 29.6497168,26.4915137 L27.4783496,24.3201465 C27.6218359,24.1618262 27.7431055,23.984707 27.8387402,23.7935742 L29.5014453,20.4681641 C29.5870313,20.4997461 29.6743262,20.5262695 29.7630566,20.547666 L31.4999316,20.8948633 L31.4999316,26.8333105 L31.5,26.8333105 Z M31.5,19.7052051 L29.9920605,19.4038086 C29.6888184,19.3422168 29.4220801,19.1635254 29.2498145,18.9064941 L28.7058105,18.0895996 C28.6092187,17.9446777 28.546123,17.7800684 28.5212402,17.607666 L27.9943262,13.9174219 C27.9882422,13.8962988 27.9808594,13.8755859 27.9723145,13.8554199 C28.1772559,13.6661328 28.3467871,13.441709 28.4728418,13.1928125 L29.3643164,11.4086328 C29.4139453,11.3034277 29.4556445,11.1947363 29.4890723,11.0833789 L31.5,11.0833789 L31.5,19.7052051 Z M31.5,9.91668945 L29.556748,9.91668945 C29.5408887,9.81914062 29.518877,9.72261719 29.4908496,9.62787109 L29.131416,8.55004883 C28.7271387,7.33236328 28.0889355,6.20539063 27.2526953,5.23236328 L25.767793,3.5 L31.5,3.5 L31.5,9.91668945 Z" id="Shape"></path>
                            </g>
                        </g>
                    </g>
                </g>
            </g>
        </g>
    </g>
</svg>