<?xml version="1.0" encoding="UTF-8"?>
<svg width="35px" height="35px" viewBox="0 0 35 35" version="1.1" xmlns="http://www.w3.org/2000/svg" xmlns:xlink="http://www.w3.org/1999/xlink">
    <!-- Generator: Sketch 51.1 (57501) - http://www.bohemiancoding.com/sketch -->
    <title>decking</title>
    <desc>Created with Sketch.</desc>
    <defs></defs>
    <g id="Site-design" stroke="none" stroke-width="1" fill="none" fill-rule="evenodd" fill-opacity="0.4">
        <g id="Homepage" transform="translate(-623.000000, -921.000000)" fill="#F4F4F8" fill-rule="nonzero">
            <g id="SERVICES" transform="translate(0.000000, 609.000000)">
                <g id="Icons" transform="translate(253.000000, 124.000000)">
                    <g id="row" transform="translate(189.000000, 188.000000)">
                        <g id="Decking" transform="translate(168.000000, 0.000000)">
                            <g id="decking" transform="translate(13.000000, 0.000000)">
                                <path d="M33.1809459,8.73195426 L10.4782432,8.73195426 L10.4782432,8.14983368 C10.4782432,7.82835759 10.2175988,7.5677131 9.89612266,7.5677131 L7.00414761,7.5677131 C7.06796258,6.73964657 7.29135135,5.93180873 7.66194387,5.18858628 L9.8379106,0.842474012 C9.98169439,0.554906445 9.86519751,0.20527027 9.57762994,0.0614864865 C9.3860395,-0.0343451143 9.15733888,-0.0171725572 8.98219335,0.106091476 L5.54186071,2.52422037 C3.52830561,3.94248441 2.32986486,6.25102911 2.32855509,8.71390852 L2.32855509,13.9710395 C2.32855509,14.2925156 2.58919958,14.5531601 2.91067568,14.5531601 L4.07491684,14.5531601 L4.07491684,14.8942827 L3.08123701,15.8879626 C2.9720894,15.9971102 2.91067568,16.1451143 2.91067568,16.2995218 L2.91067568,18.0458836 C2.91067568,18.3673597 3.17132017,18.6280042 3.49279626,18.6280042 L9.31400208,18.6280042 C9.63547817,18.6280042 9.89612266,18.3673597 9.89612266,18.0458836 L9.89612266,16.2995218 C9.89612266,16.1451143 9.83470894,15.9971102 9.72556133,15.8879626 L8.7318815,14.8942827 L8.7318815,14.5531601 L9.89612266,14.5531601 C10.2175988,14.5531601 10.4782432,14.2925156 10.4782432,13.9710395 L10.4782432,13.3889189 L33.1809459,13.3889189 C34.145447,13.3889189 34.9273077,12.6070582 34.9273077,11.6425572 L34.9273077,10.478316 C34.9273077,9.51381497 34.145447,8.73195426 33.1809459,8.73195426 Z M9.31400208,13.3889189 L8.14976091,13.3889189 C7.82828482,13.3889189 7.56764033,13.6495634 7.56764033,13.9710395 L7.56764033,15.1352807 C7.56764033,15.2896881 7.62905405,15.4376923 7.73820166,15.5468399 L8.7318815,16.5405198 L8.7318815,17.463763 L4.07491684,17.463763 L4.07491684,16.5405198 L5.06859667,15.5468399 C5.17774428,15.4376923 5.239158,15.2896881 5.239158,15.1352807 L5.239158,13.9710395 C5.239158,13.6495634 4.97851351,13.3889189 4.65703742,13.3889189 L3.49279626,13.3889189 L3.49279626,8.71390852 C3.49330561,6.62926195 4.5075052,4.67515593 6.2118815,3.47482328 L7.76148649,2.38683992 L6.62053015,4.66817048 C6.0962578,5.71940748 5.82266112,6.87790021 5.82127859,8.05261954 L5.82127859,8.14983368 C5.82127859,8.47130977 6.08192308,8.73195426 6.40339917,8.73195426 L9.31400208,8.73195426 L9.31400208,13.3889189 Z M33.7630665,11.6425572 C33.7630665,11.9640333 33.502422,12.2246778 33.1809459,12.2246778 L10.4782432,12.2246778 L10.4782432,9.89619543 L33.1809459,9.89619543 C33.502422,9.89619543 33.7630665,10.1568399 33.7630665,10.478316 L33.7630665,11.6425572 Z" id="Shape"></path>
                                <path d="M34.3451871,26.7776923 L8.14976091,26.7776923 L8.14976091,22.2761538 L9.21445946,20.7003534 C9.39448025,20.4339605 9.32455301,20.0720998 9.05816008,19.892079 C8.96181913,19.8269543 8.84816008,19.7921726 8.7318815,19.7922453 L4.07491684,19.7922453 C3.75344075,19.7920998 3.49265073,20.0525988 3.4925052,20.3740748 C3.49243243,20.4903534 3.52721414,20.6040125 3.59233888,20.7003534 L4.65703742,22.2761538 L4.65703742,26.7776923 L0.582193347,26.7776923 C0.260717256,26.7776923 7.27650728e-05,27.0383368 7.27650728e-05,27.3598129 L7.27650728e-05,34.3452599 C7.27650728e-05,34.666736 0.260717256,34.9273805 0.582193347,34.9273805 L34.3451871,34.9273805 C34.6666632,34.9273805 34.9273077,34.666736 34.9273077,34.3452599 L34.9273077,27.3598129 C34.9273077,27.0383368 34.6666632,26.7776923 34.3451871,26.7776923 Z M7.63633056,20.9564865 L7.08506237,21.7714553 C7.02030146,21.867869 6.98566528,21.9813098 6.98551975,22.0974428 L6.98551975,26.7776923 L5.82127859,26.7776923 L5.82127859,22.0974428 C5.82113306,21.9813098 5.78649688,21.867869 5.72173597,21.7714553 L5.17046778,20.9564865 L7.63633056,20.9564865 Z M33.7630665,29.1061746 L32.5988254,29.1061746 C32.2773493,29.1061746 32.0167048,29.3668191 32.0167048,29.6882952 C32.0167048,30.0097713 32.2773493,30.2704158 32.5988254,30.2704158 L33.7630665,30.2704158 L33.7630665,31.434657 L32.0167048,31.434657 C31.6952287,31.434657 31.4345842,31.6953015 31.4345842,32.0167775 C31.4345842,32.3382536 31.6952287,32.5988981 32.0167048,32.5988981 L33.7630665,32.5988981 L33.7630665,33.7631393 L1.16431393,33.7631393 L1.16431393,32.5988981 L2.32855509,32.5988981 C2.65003119,32.5988981 2.91067568,32.3382536 2.91067568,32.0167775 C2.91067568,31.6953015 2.65003119,31.434657 2.32855509,31.434657 L1.16431393,31.434657 L1.16431393,30.2704158 L9.31400208,30.2704158 C9.63547817,30.2704158 9.89612266,30.0097713 9.89612266,29.6882952 C9.89612266,29.3668191 9.63547817,29.1061746 9.31400208,29.1061746 L1.16431393,29.1061746 L1.16431393,27.9419335 L33.7630665,27.9419335 L33.7630665,29.1061746 Z" id="Shape"></path>
                                <path d="M11.6424844,30.2704158 L13.9709667,30.2704158 C14.2924428,30.2704158 14.5530873,30.0097713 14.5530873,29.6882952 C14.5530873,29.3668191 14.2924428,29.1061746 13.9709667,29.1061746 L11.6424844,29.1061746 C11.3210083,29.1061746 11.0603638,29.3668191 11.0603638,29.6882952 C11.0603638,30.0097713 11.3210083,30.2704158 11.6424844,30.2704158 Z" id="Shape"></path>
                                <path d="M16.2994491,30.2704158 L19.7921726,30.2704158 C20.1136486,30.2704158 20.3742931,30.0097713 20.3742931,29.6882952 C20.3742931,29.3668191 20.1136486,29.1061746 19.7921726,29.1061746 L16.2994491,29.1061746 C15.977973,29.1061746 15.7173285,29.3668191 15.7173285,29.6882952 C15.7173285,30.0097713 15.977973,30.2704158 16.2994491,30.2704158 Z" id="Shape"></path>
                                <path d="M22.1206549,30.2704158 L30.270343,30.2704158 C30.5918191,30.2704158 30.8524636,30.0097713 30.8524636,29.6882952 C30.8524636,29.3668191 30.5918191,29.1061746 30.270343,29.1061746 L22.1206549,29.1061746 C21.7991788,29.1061746 21.5385343,29.3668191 21.5385343,29.6882952 C21.5385343,30.0097713 21.7991788,30.2704158 22.1206549,30.2704158 Z" id="Shape"></path>
                                <path d="M8.14976091,31.434657 L4.65703742,31.434657 C4.33556133,31.434657 4.07491684,31.6953015 4.07491684,32.0167775 C4.07491684,32.3382536 4.33556133,32.5988981 4.65703742,32.5988981 L8.14976091,32.5988981 C8.47123701,32.5988981 8.7318815,32.3382536 8.7318815,32.0167775 C8.7318815,31.6953015 8.47123701,31.434657 8.14976091,31.434657 Z" id="Shape"></path>
                                <path d="M10.4782432,32.5988981 L19.7921726,32.5988981 C20.1136486,32.5988981 20.3742931,32.3382536 20.3742931,32.0167775 C20.3742931,31.6953015 20.1136486,31.434657 19.7921726,31.434657 L10.4782432,31.434657 C10.1567672,31.434657 9.89612266,31.6953015 9.89612266,32.0167775 C9.89612266,32.3382536 10.1567672,32.5988981 10.4782432,32.5988981 Z" id="Shape"></path>
                                <path d="M25.0312578,31.434657 L22.7027755,31.434657 C22.3812994,31.434657 22.1206549,31.6953015 22.1206549,32.0167775 C22.1206549,32.3382536 22.3812994,32.5988981 22.7027755,32.5988981 L25.0312578,32.5988981 C25.3527339,32.5988981 25.6133784,32.3382536 25.6133784,32.0167775 C25.6133784,31.6953015 25.3527339,31.434657 25.0312578,31.434657 Z" id="Shape"></path>
                                <path d="M29.6882225,31.434657 L27.3597401,31.434657 C27.038264,31.434657 26.7776195,31.6953015 26.7776195,32.0167775 C26.7776195,32.3382536 27.038264,32.5988981 27.3597401,32.5988981 L29.6882225,32.5988981 C30.0096985,32.5988981 30.270343,32.3382536 30.270343,32.0167775 C30.270343,31.6953015 30.0096985,31.434657 29.6882225,31.434657 Z" id="Shape"></path>
                            </g>
                        </g>
                    </g>
                </g>
            </g>
        </g>
    </g>
</svg>