<?xml version="1.0" encoding="UTF-8"?>
<svg width="37px" height="35px" viewBox="0 0 37 35" version="1.1" xmlns="http://www.w3.org/2000/svg" xmlns:xlink="http://www.w3.org/1999/xlink">
    <!-- Generator: Sketch 51.1 (57501) - http://www.bohemiancoding.com/sketch -->
    <title>driveway-cleaning</title>
    <desc>Created with Sketch.</desc>
    <defs></defs>
    <g id="Site-design" stroke="none" stroke-width="1" fill="none" fill-rule="evenodd" fill-opacity="0.4">
        <g id="Homepage" transform="translate(-301.000000, -827.000000)" fill="#F4F4F8" fill-rule="nonzero">
            <g id="SERVICES" transform="translate(0.000000, 609.000000)">
                <g id="Icons" transform="translate(253.000000, 124.000000)">
                    <g id="row" transform="translate(0.000000, 94.000000)">
                        <g id="Driveway-cleaning">
                            <g id="driveway-cleaning" transform="translate(48.000000, 0.000000)">
                                <path d="M36.7843137,19.7419444 C36.6928105,19.5589379 36.4640523,19.4674346 36.2810458,19.421683 C35.2287582,19.421683 26.1699346,19.0556699 26.1699346,8.53279412 C26.1699346,8.21253268 25.8954248,7.93802288 25.5751634,7.93802288 C25.254902,7.93802288 24.9803922,8.21253268 24.9803922,8.53279412 C24.9803922,19.0556699 15.9215686,19.421683 14.9150327,19.421683 C14.7777778,19.421683 14.6405229,19.4674346 14.5490196,19.5589379 C14.4575163,19.6046895 14.4117647,19.6961928 14.3660131,19.7419444 C14.2745098,19.924951 14.2745098,20.1537092 14.3660131,20.3367157 C14.4575163,20.5197222 14.6862745,20.6569771 14.9150327,20.6569771 C14.9150327,20.6569771 14.9150327,20.6569771 14.9607843,20.6569771 C16.0130719,20.6569771 25.0261438,21.0229902 25.0261438,31.545866 C25.0261438,31.8661275 25.3006536,32.1406373 25.620915,32.1406373 C25.9411765,32.1406373 26.2156863,31.8661275 26.2156863,31.545866 C26.2156863,21.0687418 35.2287582,20.6569771 36.2810458,20.6569771 C36.5098039,20.6569771 36.6928105,20.5197222 36.8300654,20.3367157 C36.9215686,20.1537092 36.9215686,19.924951 36.7843137,19.7419444 Z M25.5751634,27.0622059 C24.248366,22.7158007 21,20.8399837 18.4379085,20.0164542 C21,19.1929248 24.248366,17.3171078 25.5751634,12.9707026 C26.9019608,17.3171078 30.1503268,19.1929248 32.7124183,20.0164542 C30.1503268,20.8399837 26.9019608,22.7158007 25.5751634,27.0622059 Z" id="Shape"></path>
                                <path d="M18.0261438,7.84651961 C18.3464052,7.84651961 18.620915,7.5720098 18.620915,7.20599673 C18.620915,6.88573529 18.3464052,6.61122549 18.0261438,6.61122549 C17.4771242,6.61122549 12.5359477,6.42821895 12.5359477,0.663513072 C12.5359477,0.343251634 12.2614379,0.0687418301 11.9411765,0.0687418301 C11.620915,0.0687418301 11.3464052,0.343251634 11.3464052,0.663513072 C11.3464052,6.42821895 6.40522876,6.61122549 5.85620915,6.61122549 C5.81045752,6.61122549 5.81045752,6.61122549 5.81045752,6.61122549 C5.49019608,6.65697712 5.26143791,6.88573529 5.26143791,7.20599673 C5.26143791,7.52625817 5.53594771,7.80076797 5.85620915,7.80076797 C6.45098039,7.80076797 11.3464052,7.98377451 11.3464052,13.7484804 C11.3464052,14.0687418 11.620915,14.3432516 11.9411765,14.3432516 C12.2156863,14.3890033 12.4901961,14.1144935 12.4901961,13.794232 C12.4901961,8.02952614 17.4313725,7.84651961 17.9803922,7.84651961 L18.0261438,7.84651961 Z M11.8954248,10.4543627 C11.1633987,8.71580065 9.83660131,7.75501634 8.60130719,7.20599673 C9.92810458,6.65697712 11.1633987,5.60468954 11.8954248,3.95763072 C12.627451,5.69619281 13.9542484,6.65697712 15.1895425,7.20599673 C13.8627451,7.75501634 12.627451,8.80730392 11.8954248,10.4543627 Z" id="Shape"></path>
                                <path d="M12.7647059,27.2452124 C12.2156863,27.2452124 7.2745098,27.0622059 7.2745098,21.2975 C7.2745098,20.9772386 7,20.7027288 6.67973856,20.7027288 C6.35947712,20.7027288 6.08496732,20.9772386 6.08496732,21.2975 C6.08496732,27.0622059 1.14379085,27.2452124 0.594771242,27.2452124 C0.549019608,27.2452124 0.549019608,27.2452124 0.549019608,27.2452124 C0.22875817,27.2909641 -1.42108547e-14,27.5197222 -1.42108547e-14,27.8399837 C-1.42108547e-14,28.1602451 0.274509804,28.4347549 0.594771242,28.4347549 C1.18954248,28.4347549 6.08496732,28.6177614 6.08496732,34.3824673 C6.08496732,34.7027288 6.35947712,34.9772386 6.67973856,34.9772386 C6.95424837,35.0687418 7.22875817,34.794232 7.22875817,34.428219 C7.22875817,28.6635131 12.1699346,28.4805065 12.7189542,28.4805065 L12.7647059,28.4805065 C13.0849673,28.4805065 13.3594771,28.2059967 13.3594771,27.8399837 C13.3594771,27.5197222 13.0849673,27.2452124 12.7647059,27.2452124 Z M6.63398693,31.1341013 C5.85620915,29.3955392 4.5751634,28.4347549 3.33986928,27.8857353 C4.66666667,27.3367157 5.90196078,26.2844281 6.63398693,24.6373693 C7.36601307,26.3759314 8.69281046,27.3367157 9.92810458,27.8857353 C8.60130719,28.4347549 7.36601307,29.4870425 6.63398693,31.1341013 Z" id="Shape"></path>
                            </g>
                        </g>
                    </g>
                </g>
            </g>
        </g>
    </g>
</svg>