<?xml version="1.0" encoding="UTF-8"?>
<svg width="43px" height="35px" viewBox="0 0 43 35" version="1.1" xmlns="http://www.w3.org/2000/svg" xmlns:xlink="http://www.w3.org/1999/xlink">
    <!-- Generator: Sketch 51.1 (57501) - http://www.bohemiancoding.com/sketch -->
    <title>fencing</title>
    <desc>Created with Sketch.</desc>
    <defs></defs>
    <g id="Site-design" stroke="none" stroke-width="1" fill="none" fill-rule="evenodd" fill-opacity="0.4">
        <g id="Homepage" transform="translate(-1099.000000, -827.000000)" fill="#F4F4F8" fill-rule="nonzero">
            <g id="SERVICES" transform="translate(0.000000, 609.000000)">
                <g id="Icons" transform="translate(253.000000, 124.000000)">
                    <g id="row" transform="translate(0.000000, 94.000000)">
                        <g id="Fencing" transform="translate(838.000000, 0.000000)">
                            <g id="fencing" transform="translate(8.000000, 0.000000)">
                                <path d="M37.7332864,0.0398474178 C35.3444131,0.0398474178 33.4009272,1.98333333 33.4009272,4.37228873 L33.4009272,9.03180751 L30.9321948,9.03180751 L30.9321948,4.37220657 C30.9321948,1.98325117 28.9887089,0.0397652582 26.5997535,0.0397652582 C24.2108803,0.0397652582 22.2673944,1.98325117 22.2673944,4.37220657 L22.2673944,9.03172535 L19.7985798,9.03172535 L19.7985798,4.37220657 C19.7985798,1.98325117 17.8550939,0.0397652582 15.4662207,0.0397652582 C13.0772653,0.0397652582 11.1337793,1.98325117 11.1337793,4.37220657 L11.1337793,9.03172535 L8.66504695,9.03172535 L8.66504695,4.37220657 C8.66504695,1.98325117 6.72156103,0.0397652582 4.33268779,0.0397652582 C1.94348592,0.0398474178 0,1.98341549 0,4.37220657 L0,34.9601526 L8.66488263,34.9601526 L8.66488263,28.763838 L11.133615,28.763838 L11.133615,34.9601526 L19.7984977,34.9601526 L19.7984977,28.763838 L22.2673122,28.763838 L22.2673122,34.9601526 L30.9321948,34.9601526 L30.9321948,28.763838 L33.4009272,28.763838 L33.4009272,34.9601526 L42.0657277,34.9601526 L42.0657277,4.37220657 C42.0657277,1.98341549 40.1222418,0.0398474178 37.7332864,0.0398474178 Z M2.46478873,32.495446 L2.46478873,4.37220657 C2.46478873,3.34241784 3.30257042,2.50455399 4.33244131,2.50455399 C5.36223005,2.50455399 6.20001174,3.34241784 6.20001174,4.37220657 L6.20001174,32.495446 L2.46478873,32.495446 Z M11.133615,26.2991315 L8.66488263,26.2991315 L8.66488263,23.8303991 L11.133615,23.8303991 L11.133615,26.2991315 Z M11.133615,21.3656103 L8.66488263,21.3656103 L8.66488263,16.4301174 L11.133615,16.4301174 L11.133615,21.3656103 Z M11.133615,13.9653286 L8.66488263,13.9653286 L8.66488263,11.4965962 L11.133615,11.4965962 L11.133615,13.9653286 Z M13.5984038,32.495446 L13.5984038,4.37220657 C13.5984038,3.34241784 14.4361854,2.50455399 15.4660563,2.50455399 C16.4958451,2.50455399 17.3336268,3.34241784 17.3336268,4.37220657 L17.3336268,32.495446 L13.5984038,32.495446 Z M19.7984155,11.4965962 L22.26723,11.4965962 L22.26723,13.9653286 L19.7984155,13.9653286 L19.7984155,11.4965962 Z M19.7984155,21.3656103 L19.7984155,16.4301174 L22.26723,16.4301174 L22.26723,21.3656103 L19.7984155,21.3656103 Z M22.2673122,26.2991315 L19.7984977,26.2991315 L19.7984977,23.8303991 L22.2673122,23.8303991 L22.2673122,26.2991315 Z M24.7320188,32.495446 L24.7320188,4.37220657 C24.7320188,3.34241784 25.5698005,2.50455399 26.5995892,2.50455399 C27.6294601,2.50455399 28.4672418,3.34241784 28.4672418,4.37220657 L28.4672418,32.495446 L24.7320188,32.495446 Z M33.4008451,26.2991315 L30.9321127,26.2991315 L30.9321127,23.8303991 L33.4008451,23.8303991 L33.4008451,26.2991315 Z M33.4008451,21.3656103 L30.9321127,21.3656103 L30.9321127,16.4301174 L33.4008451,16.4301174 L33.4008451,21.3656103 Z M33.4008451,13.9653286 L30.9321127,13.9653286 L30.9321127,11.4965962 L33.4008451,11.4965962 L33.4008451,13.9653286 Z M35.8656338,32.495446 L35.8656338,4.37220657 C35.8656338,3.34241784 36.7034155,2.50455399 37.7332042,2.50455399 C38.7630751,2.50455399 39.6008568,3.34241784 39.6008568,4.37220657 L39.6008568,32.495446 L35.8656338,32.495446 Z" id="Shape"></path>
                            </g>
                        </g>
                    </g>
                </g>
            </g>
        </g>
    </g>
</svg>