<?xml version="1.0" encoding="UTF-8"?>
<svg width="35px" height="35px" viewBox="0 0 35 35" version="1.1" xmlns="http://www.w3.org/2000/svg" xmlns:xlink="http://www.w3.org/1999/xlink">
    <!-- Generator: Sketch 51.1 (57501) - http://www.bohemiancoding.com/sketch -->
    <title>gravel-driveways</title>
    <desc>Created with Sketch.</desc>
    <defs></defs>
    <g id="Site-design" stroke="none" stroke-width="1" fill="none" fill-rule="evenodd" fill-opacity="0.4">
        <g id="Homepage" transform="translate(-623.000000, -733.000000)" fill="#F4F4F8" fill-rule="nonzero">
            <g id="SERVICES" transform="translate(0.000000, 609.000000)">
                <g id="Icons" transform="translate(253.000000, 124.000000)">
                    <g id="row" transform="translate(19.000000, 0.000000)">
                        <g id="Gravel-driveways" transform="translate(306.000000, 0.000000)">
                            <g id="gravel-driveways" transform="translate(45.000000, 0.000000)">
                                <path d="M34.7117963,12.8718135 L31.0542891,10.2791494 L29.1456233,5.21208294 C29.0834162,5.04699517 28.9598222,4.9123273 28.8006812,4.83624338 L18.820193,0.0667450074 C18.6140891,-0.0316240593 18.3724382,-0.0207549268 18.1760413,0.0960027979 L12.5023389,3.46741628 C12.3970652,3.52996506 12.3105904,3.61958413 12.2518013,3.72697663 L9.10288886,9.48324184 L0.251084475,16.7175723 C0.0921486174,16.8474551 0,17.0417322 0,17.2469469 L0,28.1489602 C0,28.252798 0.0236523899,28.3552687 0.0691798226,28.4485791 L0.0764259304,28.4634815 L3.07699819,34.6159573 C3.19334608,34.8545314 3.43424499,35 3.69120838,35 C3.74015379,35 9.60410078,33.7083506 9.60410078,33.7083506 L13.4598505,34.9661621 C13.5282784,34.9885156 13.5998508,34.9998633 13.6719017,34.9998633 L30.7617788,34.9998633 C31.0047285,34.9998633 31.2294262,34.8708692 31.3519948,34.6611428 L34.9066892,28.5759326 C34.9678026,28.4712744 35,28.3523292 35,28.2311281 L35,19.669533 L35,13.4294889 C35.0000683,13.2078679 34.8926072,12.9999872 34.7117963,12.8718135 Z M13.3615495,4.54722016 L17.772857,1.92591353 L17.6464602,6.47720894 L13.3349577,9.55679647 L10.7087221,9.39663057 L13.3615495,4.54722016 Z M1.36719017,19.6577752 L3.10557247,22.6287398 L1.36719017,25.6313547 L1.36719017,19.6577752 Z M20.906115,33.6327452 L24.8580466,31.9906859 L28.1736878,33.6327452 L20.906115,33.6327452 Z M33.6328782,28.0461478 L30.5679796,33.2928626 L25.1862406,30.6276009 C25.0092578,30.5399643 24.8029488,30.5331284 24.6205656,30.6089388 L17.3428757,33.6328135 L13.7805933,33.6328135 L9.85074189,32.3508028 C9.73459908,32.3129317 9.61038986,32.3069161 9.49103415,32.3332344 L4.06971498,33.5325988 L1.46487591,28.1914114 C1.46487591,28.1914114 4.51699124,22.9154388 4.528544,22.8874798 C4.60927658,22.6916987 4.59526288,22.4674118 4.48657126,22.2816795 L1.61287424,17.3703355 L9.76392531,10.7087878 L13.4936201,10.9362193 C13.6519407,10.9458579 13.8019898,10.8971861 13.9325565,10.8101647 L18.7177221,7.39219849 C18.8919021,7.26778452 18.997791,7.06892724 19.0037383,6.85496256 L19.145926,1.73778867 L27.9631405,5.9512523 L29.7350873,10.6553992 L28.2755435,12.8876045 C28.1094982,13.1415594 28.1306897,13.4746744 28.3277018,13.7054555 L33.6328782,19.9215738 L33.6328782,28.0461478 Z M33.6328782,17.8154914 L29.7000189,13.2073211 L30.6884974,11.695623 L33.6328782,13.7828382 L33.6328782,17.8154914 Z" id="Shape"></path>
                                <path d="M16.880444,28.8947033 L15.7935875,23.6009852 C15.7927724,23.5970489 15.7916177,23.5933161 15.7907347,23.5893798 C15.7272934,23.305555 15.4689094,23.0828117 15.179484,23.061026 C15.1761557,23.0607545 9.05407193,22.6858507 9.05407193,22.6858507 L8.49036828,19.2553178 L13.1566988,17.8020564 C13.4733618,17.703444 13.67238,17.3907753 13.6276179,17.062429 C13.6276179,17.062429 13.2208872,14.0824051 13.2200722,14.0762291 C13.1047367,13.2310666 11.7548774,13.3862133 11.8740845,14.2596089 L12.2039928,16.6770056 L10.8331448,17.1038965 C10.8331448,17.1038965 10.4981422,15.3345051 10.497463,15.3312475 C10.339539,14.4970797 8.99850986,14.7169047 9.16268286,15.5835814 L9.52757212,17.5105626 L7.62107327,18.1042734 C7.62107327,18.1042734 5.48838654,18.1042734 5.4829526,18.1042734 C4.61501607,18.1042734 4.60326517,19.461637 5.4829526,19.461637 L7.14764099,19.461637 L7.76541237,23.2211949 C7.76541237,23.2211949 5.29160988,28.0996954 5.28461368,28.1134727 C4.89452451,28.8828264 6.09956926,29.5097247 6.49645087,28.727001 L8.19754668,25.3723447 C8.19754668,25.3723447 8.89166496,28.7533339 8.89309137,28.7601886 C9.06521151,29.5985642 10.4011464,29.3508453 10.223864,28.4874942 L9.31524081,24.0616744 L14.0552692,24.3516752 C14.0552692,24.3516752 11.9441824,28.514913 11.9411937,28.5207496 C11.5570139,29.27843 12.7574398,29.9144906 13.1530309,29.1342101 L14.8541267,25.7795538 C14.8541267,25.7795538 15.5480412,29.1593892 15.5496714,29.1673976 C15.724984,30.0211793 17.057183,29.7556112 16.880444,28.8947033 Z" id="Shape"></path>
                                <path d="M32.0145708,23.4633647 C31.9913265,23.4221788 25.7671353,12.4110506 25.7671353,12.4110506 C25.5814519,12.0834794 25.154651,11.9753836 24.8421064,12.1558625 C24.5174992,12.3433197 24.4043271,12.7620198 24.5900106,13.0897279 L27.5900862,18.3973673 L25.9033484,19.673992 L24.4958135,19.3291802 C24.4958135,19.3291802 24.4958135,17.1378462 24.4958135,17.1310047 C24.4958135,16.2539238 23.1404597,16.2450299 23.1404597,17.1310047 L23.1404597,19.4126466 L21.2267002,20.2213124 C21.2267002,20.2213124 20.3606291,18.4726238 20.3579184,18.4671506 C19.9723203,17.6879032 18.7525019,18.2851666 19.1462321,19.0787811 L20.2982829,21.4048927 C20.4575369,21.7271276 20.837036,21.8694309 21.1657093,21.7298642 L23.1404597,20.8958848 L23.1404597,23.5462837 L21.1677423,26.3088833 C21.0742229,26.439556 21.0301739,26.5989631 21.0416944,26.7590543 C21.0416944,26.7590543 21.2443198,29.5544931 21.2449975,29.5640712 C21.3073437,30.4302057 22.6606645,30.3487918 22.5962852,29.4641853 L22.4112794,26.907515 L23.6670147,25.1485641 L24.41517,26.9102516 C24.4388886,26.9670361 24.4707395,27.0197156 24.5086894,27.0682903 C24.5086894,27.0682903 26.1276595,29.1111636 26.1351139,29.1207417 C26.671834,29.7980507 27.7459519,28.962703 27.1936452,28.2655537 L25.6248232,26.2856222 L24.4958135,23.626945 L24.4958135,20.7370935 C24.4958135,20.7370935 25.8931832,21.0791687 25.8945386,21.0798528 C26.0768337,21.1243226 26.3018224,21.0825894 26.4610765,20.962179 L28.2670854,19.5945622 L30.8375138,24.1414262 C31.0507787,24.5175721 31.4492528,24.5330339 31.7424158,24.3621331 C32.0357821,24.1910271 32.2236341,23.8332164 32.0145708,23.4633647 Z" id="Shape"></path>
                                <circle id="Oval" cx="23.8965517" cy="10.3793103" r="1"></circle>
                            </g>
                        </g>
                    </g>
                </g>
            </g>
        </g>
    </g>
</svg>