<?xml version="1.0" encoding="UTF-8"?>
<svg width="35px" height="35px" viewBox="0 0 35 35" version="1.1" xmlns="http://www.w3.org/2000/svg" xmlns:xlink="http://www.w3.org/1999/xlink">
    <!-- Generator: Sketch 51.1 (57501) - http://www.bohemiancoding.com/sketch -->
    <title>landscaping</title>
    <desc>Created with Sketch.</desc>
    <defs></defs>
    <g id="Site-design" stroke="none" stroke-width="1" fill="none" fill-rule="evenodd" fill-opacity="0.4">
        <g id="Homepage" transform="translate(-783.000000, -827.000000)" fill="#F4F4F8" fill-rule="nonzero">
            <g id="SERVICES" transform="translate(0.000000, 609.000000)">
                <g id="Icons" transform="translate(253.000000, 124.000000)">
                    <g id="row" transform="translate(0.000000, 94.000000)">
                        <g id="Landscaping" transform="translate(501.000000, 0.000000)">
                            <g id="landscaping" transform="translate(29.000000, 0.000000)">
                                <path d="M31.6664885,21.7042558 L25.4912264,15.5295807 C25.2620021,15.3004298 24.8904298,15.3004298 24.6612055,15.5295807 L21.3405346,18.8502516 L10.1458176,7.65494759 C10.3451048,6.23763103 9.9957652,4.79764151 9.16904612,3.62928721 L10.1358386,2.66249476 C10.3649895,2.43327044 10.3649895,2.06169811 10.1358386,1.83247379 L8.47344864,0.171844864 C8.24422432,-0.0573060797 7.87265199,-0.0573060797 7.64342767,0.171844864 L0.172651992,7.64262055 C-0.0564989518,7.87184486 -0.0564989518,8.24341719 0.172651992,8.47264151 L1.83151992,10.1332704 C2.06074423,10.3624214 2.43231656,10.3624214 2.66154088,10.1332704 L3.62422432,9.170587 C4.585,9.82318658 5.71131027,10.1895493 6.87210692,10.2271908 C7.13471698,10.2247694 7.39644654,10.1962998 7.65340671,10.1420755 L18.8504717,21.3403145 L15.5298008,24.6609853 C15.3006499,24.8902096 15.3006499,25.261782 15.5298008,25.4910063 L21.7044759,31.6656813 C24.2289518,34.1872956 27.8065094,35.3506604 31.3313103,34.7961635 L33.9029665,34.3905451 C34.1542034,34.3506289 34.3511426,34.1534696 34.3907652,33.9021593 L34.7969706,31.3299161 C35.3475052,27.8057757 34.1847275,24.2304193 31.6664885,21.7042558 Z M25.4155031,24.5852621 L26.0359644,26.0357442 L24.5848952,25.415283 L18.8504717,19.6802725 L19.6804927,18.8502516 L25.4155031,24.5852621 Z M2.2477044,8.88823899 L1.42061845,8.05821803 L8.05843816,1.41687631 L8.88845912,2.24748428 L2.2477044,8.88823899 Z M7.66808176,8.94224319 C6.56422432,9.17535639 5.41296646,8.95009434 4.47831237,8.31825996 L8.31848008,4.47809224 C8.95148847,5.41472746 9.17609015,6.56862683 8.94070231,7.67431866 C8.76812369,8.29081761 8.28524109,8.7719392 7.66808176,8.94224319 Z M9.71965409,10.5488679 L8.84795597,9.67716981 C8.86380503,9.66542977 8.87554507,9.64958071 8.89432914,9.63842767 C9.18951782,9.4428826 9.4425891,9.1901782 9.6386478,8.89528302 C9.65038784,8.87825996 9.6668239,8.86417191 9.67856394,8.84656184 L10.5502621,9.71825996 L10.1352516,10.1338574 L9.71965409,10.5488679 Z M18.0204507,18.8502516 L10.548501,11.3788889 L11.379109,10.5482809 L18.8504717,18.0202306 L18.0204507,18.8502516 Z M33.6370545,31.1467715 L33.2948323,33.2946122 L31.1446436,33.6338994 C27.9914151,34.1274214 24.7920335,33.0870335 22.5321488,30.8333124 L16.7748323,25.0765828 L19.6804927,22.1715094 L23.8352935,26.3263103 C23.8881237,26.3792872 23.9507128,26.4215514 24.0196122,26.4507547 L26.9205765,27.6916771 C26.9863941,27.7186059 27.0566876,27.7331342 27.1277883,27.7345283 C27.1354193,27.7345283 27.1436373,27.7392243 27.1518553,27.7392243 C27.1600734,27.7392243 27.1770964,27.7327673 27.1905975,27.7315933 C27.2397589,27.728218 27.28826,27.7185325 27.335,27.7028302 C27.3549581,27.697327 27.3745493,27.6906499 27.3937002,27.6828721 C27.6850734,27.5587212 27.8207442,27.2219287 27.6965933,26.9304822 C27.6950524,26.9268868 27.6935115,26.9232914 27.6918973,26.9197694 L26.4498008,24.019979 C26.4204507,23.951153 26.3781866,23.8886373 26.3253564,23.8356604 L22.1705556,19.6808595 L25.0762159,16.7751992 L30.8364675,22.5348637 C33.0891614,24.7951153 34.1294025,27.9938365 33.6370545,31.1467715 Z" id="Shape"></path>
                            </g>
                        </g>
                    </g>
                </g>
            </g>
        </g>
    </g>
</svg>