<?xml version="1.0" encoding="UTF-8"?>
<svg width="35px" height="35px" viewBox="0 0 35 35" version="1.1" xmlns="http://www.w3.org/2000/svg" xmlns:xlink="http://www.w3.org/1999/xlink">
    <!-- Generator: Sketch 51.1 (57501) - http://www.bohemiancoding.com/sketch -->
    <title>outbuildings</title>
    <desc>Created with Sketch.</desc>
    <defs></defs>
    <g id="Site-design" stroke="none" stroke-width="1" fill="none" fill-rule="evenodd" fill-opacity="0.4">
        <g id="Homepage" transform="translate(-1103.000000, -733.000000)" fill="#F4F4F8" fill-rule="nonzero">
            <g id="SERVICES" transform="translate(0.000000, 609.000000)">
                <g id="Icons" transform="translate(253.000000, 124.000000)">
                    <g id="row" transform="translate(19.000000, 0.000000)">
                        <g id="Outbuildings" transform="translate(801.000000, 0.000000)">
                            <g id="outbuildings" transform="translate(30.000000, 0.000000)">
                                <path d="M34.9907031,15.1407129 C34.9277441,14.3212207 34.5494434,13.5755566 33.9255957,13.0409863 L30.8982324,10.4460645 L30.8982324,3.07234375 C30.8982324,2.50605469 30.4391309,2.04702148 29.8729102,2.04702148 L25.7714844,2.04702148 C25.2051953,2.04702148 24.759834,2.50612305 24.759834,3.07234375 L24.759834,5.17289062 L19.5706055,0.750380859 C18.4105469,-0.243496094 16.7266504,-0.243359375 15.5702832,0.747441406 L1.07515625,13.0408496 C-0.206787109,14.139248 -0.373105469,16.0775781 0.742519531,17.3798242 C1.5928418,18.3686426 2.95490234,18.683916 4.11605469,18.2758105 L4.11605469,33.9700293 C4.11605469,34.5363184 4.56148438,34.9953516 5.12770508,34.9953516 L29.8728418,34.9953516 C30.4391309,34.9953516 30.8981641,34.53625 30.8981641,33.9700293 L30.8981641,18.2760156 C32.0967773,18.6998437 33.430127,18.3446484 34.2591895,17.378457 C34.7937598,16.7544727 35.0535937,15.9597266 34.9907031,15.1407129 Z M26.7968066,4.09766602 L28.8611914,4.09766602 L28.8611914,8.68827148 L26.7968066,6.93054687 L26.7968066,4.09766602 Z M21.6837305,32.944707 L13.3305566,32.944707 L13.3305566,24.7281836 L21.6837305,24.7281836 L21.6837305,32.944707 Z M28.8612598,32.944707 L23.7207715,32.944707 L23.7207715,23.7165332 C23.7207715,23.1502441 23.2616699,22.6912109 22.6954492,22.6912109 L12.305166,22.6912109 C11.738877,22.6912109 11.2935156,23.1503125 11.2935156,23.7165332 L11.2935156,32.944707 L6.1530957,32.944707 L6.1530957,16.8010254 L17.5652148,7.12044922 L28.8612598,16.7914551 L28.8612598,32.944707 Z M32.702373,16.0435352 C32.3388379,16.4672266 31.6925684,16.5293652 31.2560254,16.1550293 L18.2358887,4.9944043 C17.853418,4.66648438 17.2894531,4.66511719 16.9053418,4.99098633 C16.6278711,5.2262793 3.79941406,16.1084082 3.74513672,16.1544824 C3.31570312,16.5219141 2.66628906,16.4718066 2.29858398,16.044082 C1.93046875,15.6144434 1.98023437,14.9657813 2.40583984,14.6010156 L16.9010352,2.30753906 C17.2879492,1.97613281 17.8494531,1.97606445 18.2360938,2.30740234 L32.5911523,14.5980762 C33.0203125,14.9658496 33.0700098,15.6145801 32.702373,16.0435352 Z" id="Shape"></path>
                                <path d="M20.644668,12.3004492 L14.3558789,12.3004492 C13.7895898,12.3004492 13.3442285,12.7595508 13.3442285,13.3257715 L13.3442285,19.4778418 C13.3442285,20.0441309 13.7896582,20.5031641 14.3558789,20.5031641 L20.644668,20.5031641 C21.210957,20.5031641 21.6699902,20.0440625 21.6699902,19.4778418 L21.6699902,13.3257715 C21.6700586,12.7594824 21.210957,12.3004492 20.644668,12.3004492 Z M19.6330176,18.4525879 L15.3812012,18.4525879 L15.3812012,14.3511621 L19.6330176,14.3511621 L19.6330176,18.4525879 Z" id="Shape"></path>
                                <circle id="Oval" cx="18.5936816" cy="27.8177539" r="1.02532227"></circle>
                            </g>
                        </g>
                    </g>
                </g>
            </g>
        </g>
    </g>
</svg>