<?xml version="1.0" encoding="UTF-8"?>
<svg width="43px" height="35px" viewBox="0 0 43 35" version="1.1" xmlns="http://www.w3.org/2000/svg" xmlns:xlink="http://www.w3.org/1999/xlink">
    <!-- Generator: Sketch 51.1 (57501) - http://www.bohemiancoding.com/sketch -->
    <title>patios-pathways</title>
    <desc>Created with Sketch.</desc>
    <defs></defs>
    <g id="Site-design" stroke="none" stroke-width="1" fill="none" fill-rule="evenodd" fill-opacity="0.4">
        <g id="Homepage" transform="translate(-939.000000, -827.000000)" fill="#F4F4F8" fill-rule="nonzero">
            <g id="SERVICES" transform="translate(0.000000, 609.000000)">
                <g id="Icons" transform="translate(253.000000, 124.000000)">
                    <g id="row" transform="translate(0.000000, 94.000000)">
                        <g id="Patios" transform="translate(640.000000, 0.000000)">
                            <g id="patios-pathways" transform="translate(46.000000, 0.000000)">
                                <g id="Group" transform="translate(2.669492, 0.000000)">
                                    <path d="M12.7210169,26.4884746 L11.2412288,26.4884746 L13.0753178,32.4878602 C13.1666737,32.7849153 13.0010169,33.0985805 12.7039619,33.1900847 C12.6468644,33.2072881 12.5896186,33.2129237 12.5383051,33.2129237 C12.2983475,33.2129237 12.0754449,33.0586864 12.0011441,32.819322 L10.0584958,26.4884746 L5.21307203,26.4884746 L3.40760593,32.865 C3.33908898,33.1157839 3.11055085,33.2763983 2.86480932,33.2763983 C2.81334746,33.2763983 2.7620339,33.2706144 2.71057203,33.2535593 C2.41351695,33.167839 2.23629237,32.8593644 2.32201271,32.562161 L4.20177966,25.9284746 L1.60199153,17.3122458 C1.51627119,17.0151907 1.68192797,16.7015254 1.97913136,16.6152119 C2.27618644,16.5238559 2.59622881,16.6895127 2.68194915,16.9865678 L5.20743644,25.3566102 L12.7210169,25.3566102 C13.0294915,25.3566102 13.2810169,25.6137712 13.2810169,25.9222458 C13.2808686,26.2370975 13.0294915,26.4884746 12.7210169,26.4884746 Z" id="Shape"></path>
                                    <path d="M35.0895763,17.3122458 L32.4897881,25.9284746 L34.3695551,32.562161 C34.4552754,32.8592161 34.2781992,33.167839 33.9809958,33.2535593 C33.9295339,33.2707627 33.8782203,33.2763983 33.8267585,33.2763983 C33.5810169,33.2763983 33.3524788,33.1163771 33.2839619,32.865 L31.4784958,26.4884746 L26.6332203,26.4884746 L24.690572,32.819322 C24.6162712,33.0592797 24.3935169,33.2129237 24.153411,33.2129237 C24.1019492,33.2129237 24.0448517,33.2071398 23.9877542,33.1900847 C23.6906992,33.0987288 23.5248941,32.7844703 23.6163983,32.4878602 L25.4504873,26.4884746 L23.9763347,26.4884746 C23.6620763,26.4884746 23.4106992,26.2370975 23.4106992,25.922839 C23.4106992,25.6143644 23.6620763,25.3572034 23.9763347,25.3572034 L31.4841314,25.3572034 L34.0096186,16.987161 C34.095339,16.6895127 34.4152331,16.5186653 34.7124364,16.6158051 C35.0100847,16.7009322 35.1752966,17.0151907 35.0895763,17.3122458 Z" id="Shape"></path>
                                    <path d="M24.2741314,22.2374576 L18.8918432,22.2374576 L18.8918432,10.3700847 C18.8918432,10.0552331 18.6404661,9.80444915 18.3262076,9.80444915 C18.0177331,9.80444915 17.7662076,10.0552331 17.7662076,10.3700847 L17.7662076,22.2374576 L12.2924153,22.2374576 C11.9781568,22.2374576 11.7267797,22.4888347 11.7267797,22.7974576 C11.7267797,23.1117161 11.9781568,23.3625 12.2924153,23.3625 L17.7662076,23.3625 L17.7662076,30.4881144 L15.8063559,30.4881144 C14.617839,30.4881144 14.1036653,31.7565678 13.9836864,32.5044703 C13.9608475,32.6701271 14.0065254,32.8359322 14.1150847,32.955911 C14.2236441,33.0821186 14.3778814,33.1564195 14.5436864,33.1564195 L22.1143644,33.1564195 C22.2800212,33.1564195 22.4342585,33.0821186 22.5428178,32.955911 C22.6513771,32.8359322 22.6970551,32.6702754 22.6685805,32.5044703 C22.5542373,31.7559746 22.0400636,30.4881144 20.8516949,30.4881144 L18.8918432,30.4881144 L18.8918432,23.3625 L24.2741314,23.3625 C24.5883898,23.3625 24.8397669,23.1117161 24.8397669,22.7974576 C24.8391737,22.4888347 24.5883898,22.2374576 24.2741314,22.2374576 Z M20.8515466,31.6193856 C21.0630297,31.6193856 21.2229025,31.8078814 21.3372458,32.0313771 L15.3206568,32.0313771 C15.435,31.8080297 15.5948729,31.6193856 15.8063559,31.6193856 L20.8515466,31.6193856 Z" id="Shape"></path>
                                    <path d="M36.9579237,8.51879237 C36.7922669,8.17591102 32.7697881,0.068220339 18.5369492,0.068220339 C4.30974576,0.068220339 0.281631356,8.17605932 0.121610169,8.51879237 C0.0358898305,8.69023305 0.047309322,8.8959322 0.150233051,9.06158898 C0.253008475,9.22724576 0.435868644,9.32438559 0.630148305,9.32438559 L36.4493856,9.32438559 C36.6436653,9.32438559 36.8207415,9.22724576 36.9236653,9.06158898 C37.0270339,8.8959322 37.0384534,8.69023305 36.9579237,8.51879237 Z M1.63639831,8.19830508 C2.16199153,7.44461864 3.13902542,6.27330508 4.71610169,5.10777542 C7.12724576,3.32514831 11.486822,1.19904661 18.5375424,1.19904661 C29.3822034,1.19904661 34.0159958,6.19855932 35.4329025,8.19830508 L1.63639831,8.19830508 Z" id="Shape"></path>
                                </g>
                                <path d="M41.8516949,34.9316314 L0.563411017,34.9316314 C0.251970339,34.9316314 0,34.679661 0,34.3682203 C0,34.0567797 0.251970339,33.8048093 0.563411017,33.8048093 L41.8516949,33.8048093 C42.1631356,33.8048093 42.4151059,34.0567797 42.4151059,34.3682203 C42.4151059,34.679661 42.1631356,34.9316314 41.8516949,34.9316314 Z" id="Shape"></path>
                            </g>
                        </g>
                    </g>
                </g>
            </g>
        </g>
    </g>
</svg>