<?xml version="1.0" encoding="UTF-8"?>
<svg width="35px" height="35px" viewBox="0 0 35 35" version="1.1" xmlns="http://www.w3.org/2000/svg" xmlns:xlink="http://www.w3.org/1999/xlink">
    <!-- Generator: Sketch 51.1 (57501) - http://www.bohemiancoding.com/sketch -->
    <title>permeable-paving-1</title>
    <desc>Created with Sketch.</desc>
    <defs></defs>
    <g id="Site-design" stroke="none" stroke-width="1" fill="none" fill-rule="evenodd" fill-opacity="0.4">
        <g id="Homepage" transform="translate(-943.000000, -733.000000)" fill="#F4F4F8" fill-rule="nonzero">
            <g id="SERVICES" transform="translate(0.000000, 609.000000)">
                <g id="Icons" transform="translate(253.000000, 124.000000)">
                    <g id="row" transform="translate(19.000000, 0.000000)">
                        <g id="Permeable-paving" transform="translate(622.000000, 0.000000)">
                            <g id="permeable-paving-1" transform="translate(49.000000, 0.000000)">
                                <path d="M33.25,0 L1.75,0 C0.783945312,0.00102539063 0.00102539063,0.783945312 0,1.75 L0,33.25 C0.00102539063,34.2160547 0.783945312,34.9989746 1.75,35 L33.25,35 C34.2160547,34.9989746 34.9989746,34.2160547 35,33.25 L35,1.75 C34.9989746,0.783945312 34.2160547,0.00102539063 33.25,0 Z M20.4166895,7.58331055 L20.4166895,12.25 C20.4164844,12.572041 20.1554199,12.8331055 19.8333789,12.8333105 L12.8333789,12.8333105 C12.5113379,12.8331055 12.2502734,12.572041 12.2500684,12.25 L12.2500684,7.58331055 C12.2502734,7.26120117 12.5113379,7.00020508 12.8333789,7 L19.8333789,7 C20.1554199,7.00020508 20.4164844,7.26126953 20.4166895,7.58331055 Z M19.8333105,26.25 L15.1666211,26.25 C14.8445117,26.2497949 14.5835156,25.9887305 14.5833105,25.6666895 L14.5833105,22.75 C14.5835156,22.427959 14.8445801,22.1668945 15.1666211,22.1666895 L19.8333105,22.1666895 C20.1553516,22.1668945 20.416416,22.427959 20.4166211,22.75 L20.4166211,25.6666895 C20.4164844,25.9887305 20.1554199,26.2497949 19.8333105,26.25 Z M20.4166895,28 L20.4166895,29.1666895 C20.4164844,29.4887305 20.1554199,29.7497949 19.8333789,29.75 L16.3333789,29.75 L15.1666895,29.75 C14.8445801,29.7497949 14.583584,29.4887305 14.5833789,29.1666895 L14.5833789,28 C14.583584,27.677959 14.8446484,27.4168945 15.1666895,27.4166895 L19.8333789,27.4166895 C20.1554199,27.4168945 20.4164844,27.677959 20.4166895,28 Z M19.8333105,21 L15.1666211,21 C14.8445117,20.9997949 14.5835156,20.7387305 14.5833105,20.4166895 L14.5833105,14.5833789 C14.5835156,14.2612695 14.8445801,14.0002734 15.1666211,14.0000684 L19.8333105,14.0000684 C20.1553516,14.0002734 20.416416,14.2613379 20.4166211,14.5833789 L20.4166211,20.4166895 C20.4164844,20.7387305 20.1554199,20.9997949 19.8333105,21 Z M14,1.16668945 L19.25,1.16668945 L19.25,5.25 C19.2497949,5.57210938 18.9887305,5.83310547 18.6666895,5.83331055 L14.5833789,5.83331055 C14.2612695,5.83310547 14.0002734,5.57204102 14.0000684,5.25 L14.0000684,1.16668945 L14,1.16668945 Z M7.58331055,1.16668945 L12.8333105,1.16668945 L12.8333105,5.25 C12.8331055,5.57210938 12.572041,5.83310547 12.25,5.83331055 L7.58331055,5.83331055 L7.58331055,1.16668945 Z M7.58331055,7 L10.5,7 C10.822041,7.00020508 11.0831055,7.26126953 11.0833105,7.58331055 L11.0833105,12.25 C11.0831055,12.572041 10.822041,12.8331055 10.5,12.8333105 L7.58331055,12.8333105 L7.58331055,7 Z M7.58331055,14 L12.8333105,14 C13.1553516,14.0002051 13.416416,14.2612695 13.4166211,14.5833105 L13.4166211,17.5 C13.416416,17.8221094 13.1553516,18.0831055 12.8333105,18.0833105 L7.58331055,18.0833105 L7.58331055,14 Z M7.58331055,19.25 L12.8333105,19.25 C13.1553516,19.2502051 13.416416,19.5112695 13.4166211,19.8333105 L13.4166211,23.9166211 C13.416416,24.2386621 13.1553516,24.4997266 12.8333105,24.4999316 L7.58331055,24.4999316 L7.58331055,19.25 Z M7.58331055,25.6666895 L12.8333105,25.6666895 C13.1553516,25.6668945 13.416416,25.927959 13.4166211,26.25 L13.4166211,29.1666895 C13.416416,29.4887305 13.1553516,29.7497949 12.8333105,29.75 L7.58331055,29.75 L7.58331055,25.6666895 Z M6.41668945,33.8333105 L1.75,33.8333105 C1.42795898,33.8331055 1.16689453,33.572041 1.16668945,33.25 L1.16668945,1.75 C1.16689453,1.42795898 1.42795898,1.16689453 1.75,1.16668945 L6.41668945,1.16668945 L6.41668945,33.8333105 Z M11.6666895,33.8333105 L7.58337891,33.8333105 L7.58337891,30.9166211 L11.0833789,30.9166211 C11.4054199,30.9168262 11.6664844,31.1778906 11.6666895,31.4999316 L11.6666895,33.8333105 Z M16.9166895,33.8333105 L12.8333789,33.8333105 L12.8333789,31.5 C12.833584,31.177959 13.0946484,30.9168945 13.4166895,30.9166895 L16.3333789,30.9166895 C16.6554199,30.9168945 16.9164844,31.177959 16.9166895,31.5 L16.9166895,33.8333105 Z M21,33.8333105 L18.0833105,33.8333105 L18.0833105,31.5 C18.0835156,31.177959 18.3445801,30.9168945 18.6666211,30.9166895 L20.4166211,30.9166895 C20.7386621,30.9168945 20.9997266,31.177959 20.9999316,31.5 L20.9999316,33.8333105 L21,33.8333105 Z M27.4166895,33.8333105 L22.1666895,33.8333105 L22.1666895,31.5 C22.1668945,31.177959 22.427959,30.9168945 22.75,30.9166895 L27.4166895,30.9166895 L27.4166895,33.8333105 Z M27.4166895,29.75 L22.1666895,29.75 C21.8446484,29.7497949 21.583584,29.4887305 21.5833789,29.1666895 L21.5833789,28 C21.583584,27.677959 21.8446484,27.4168945 22.1666895,27.4166895 L27.4166895,27.4166895 L27.4166895,29.75 Z M27.4166895,26.25 L22.1666895,26.25 C21.8446484,26.2497949 21.583584,25.9887305 21.5833789,25.6666895 L21.5833789,24.5 C21.583584,24.177959 21.8446484,23.9168945 22.1666895,23.9166895 L27.4166895,23.9166895 L27.4166895,26.25 Z M27.4166895,22.75 L22.1666895,22.75 C21.8446484,22.7497949 21.583584,22.4887305 21.5833789,22.1666895 L21.5833789,18.6666895 C21.583584,18.3446484 21.8446484,18.083584 22.1666895,18.0833789 L27.4166895,18.0833789 L27.4166895,22.75 Z M27.4166895,16.9166895 L22.1666895,16.9166895 C21.8446484,16.9164844 21.583584,16.6554199 21.5833789,16.3333789 L21.5833789,14.5833789 C21.583584,14.2612695 21.8446484,14.0002734 22.1666895,14.0000684 L27.4166895,14.0000684 L27.4166895,16.9166895 Z M27.4166895,12.8333105 L22.1666895,12.8333105 C21.8446484,12.8331055 21.583584,12.572041 21.5833789,12.25 L21.5833789,7.58331055 C21.583584,7.26120117 21.8446484,7.00020508 22.1666895,7 L27.4166895,7 L27.4166895,12.8333105 Z M27.4166895,5.83331055 L21,5.83331055 C20.677959,5.83310547 20.4168945,5.57204102 20.4166895,5.25 L20.4166895,1.16668945 L27.4166895,1.16668945 L27.4166895,5.83331055 Z M33.8333105,33.25 C33.8331055,33.572041 33.572041,33.8331055 33.25,33.8333105 L28.5833105,33.8333105 L28.5833105,1.16668945 L33.25,1.16668945 C33.572041,1.16689453 33.8331055,1.42795898 33.8333105,1.75 L33.8333105,33.25 Z" id="Shape"></path>
                                <g id="permeable-paving-2" transform="translate(2.000000, 3.000000)">
                                    <path d="M2.24393531,0.551251391 C2.12938005,0.381451826 2.02830189,0.225236226 1.93396226,0.0826045912 C1.92048518,0.0622286433 1.90026954,0.0418526955 1.88005391,0.0282687303 C1.79919137,-0.0260671306 1.69137466,0.00110079985 1.63746631,0.0826045912 C1.54986523,0.225236226 1.44878706,0.374659843 1.32749326,0.551251391 C0.795148248,1.33912137 0,2.52771833 0,3.20691659 C0,3.70273132 0.202156334,4.15100217 0.525606469,4.47701734 C0.849056604,4.79624052 1.29380054,5 1.78571429,5 C2.27762803,5 2.72237197,4.79624052 3.0458221,4.47022536 C3.36927224,4.14421019 3.57142857,3.69593934 3.57142857,3.20012461 C3.57142857,2.52092635 2.77628032,1.33912137 2.24393531,0.551251391 Z M2.8032345,4.22571398 C2.54043127,4.4906013 2.18328841,4.6468169 1.78571429,4.6468169 C1.38814016,4.6468169 1.0309973,4.48380932 0.76819407,4.22571398 C0.505390836,3.96082666 0.350404313,3.60085158 0.350404313,3.20012461 C0.350404313,2.62959807 1.11185984,1.49533697 1.61725067,0.741426904 C1.67789757,0.65313113 1.73180593,0.564835356 1.78571429,0.490123548 C1.83962264,0.564835356 1.893531,0.65313113 1.9541779,0.741426904 C2.45956873,1.50212896 3.22102426,2.62959807 3.22102426,3.20012461 C3.22102426,3.60085158 3.05929919,3.96082666 2.8032345,4.22571398 Z" id="Shape"></path>
                                    <path d="M2.72417345,2.85764857 C2.64681158,2.84964255 2.5805014,2.93770884 2.57497555,3.04979321 C2.5694497,3.22592579 2.53076877,3.39405235 2.46998444,3.53816083 C2.40920011,3.68226931 2.32078654,3.81036573 2.21579542,3.890426 C2.14948525,3.94646819 2.12185601,4.07456461 2.16053694,4.17063693 C2.20474373,4.2827213 2.2931573,4.31474541 2.35946748,4.25870322 C2.50866538,4.13861282 2.63023403,3.96248024 2.71312176,3.76232957 C2.80153533,3.56217891 2.85126796,3.32199811 2.85679381,3.07381129 C2.86231966,2.96172692 2.80153533,2.8656546 2.72417345,2.85764857 Z" id="Shape"></path>
                                </g>
                                <g id="permeable-paving-2" transform="translate(2.000000, 11.000000)">
                                    <path d="M2.24393531,0.551251391 C2.12938005,0.381451826 2.02830189,0.225236226 1.93396226,0.0826045912 C1.92048518,0.0622286433 1.90026954,0.0418526955 1.88005391,0.0282687303 C1.79919137,-0.0260671306 1.69137466,0.00110079985 1.63746631,0.0826045912 C1.54986523,0.225236226 1.44878706,0.374659843 1.32749326,0.551251391 C0.795148248,1.33912137 0,2.52771833 0,3.20691659 C0,3.70273132 0.202156334,4.15100217 0.525606469,4.47701734 C0.849056604,4.79624052 1.29380054,5 1.78571429,5 C2.27762803,5 2.72237197,4.79624052 3.0458221,4.47022536 C3.36927224,4.14421019 3.57142857,3.69593934 3.57142857,3.20012461 C3.57142857,2.52092635 2.77628032,1.33912137 2.24393531,0.551251391 Z M2.8032345,4.22571398 C2.54043127,4.4906013 2.18328841,4.6468169 1.78571429,4.6468169 C1.38814016,4.6468169 1.0309973,4.48380932 0.76819407,4.22571398 C0.505390836,3.96082666 0.350404313,3.60085158 0.350404313,3.20012461 C0.350404313,2.62959807 1.11185984,1.49533697 1.61725067,0.741426904 C1.67789757,0.65313113 1.73180593,0.564835356 1.78571429,0.490123548 C1.83962264,0.564835356 1.893531,0.65313113 1.9541779,0.741426904 C2.45956873,1.50212896 3.22102426,2.62959807 3.22102426,3.20012461 C3.22102426,3.60085158 3.05929919,3.96082666 2.8032345,4.22571398 Z" id="Shape"></path>
                                    <path d="M2.72417345,2.85764857 C2.64681158,2.84964255 2.5805014,2.93770884 2.57497555,3.04979321 C2.5694497,3.22592579 2.53076877,3.39405235 2.46998444,3.53816083 C2.40920011,3.68226931 2.32078654,3.81036573 2.21579542,3.890426 C2.14948525,3.94646819 2.12185601,4.07456461 2.16053694,4.17063693 C2.20474373,4.2827213 2.2931573,4.31474541 2.35946748,4.25870322 C2.50866538,4.13861282 2.63023403,3.96248024 2.71312176,3.76232957 C2.80153533,3.56217891 2.85126796,3.32199811 2.85679381,3.07381129 C2.86231966,2.96172692 2.80153533,2.8656546 2.72417345,2.85764857 Z" id="Shape"></path>
                                </g>
                                <g id="permeable-paving-2" transform="translate(2.000000, 19.000000)">
                                    <path d="M2.24393531,0.551251391 C2.12938005,0.381451826 2.02830189,0.225236226 1.93396226,0.0826045912 C1.92048518,0.0622286433 1.90026954,0.0418526955 1.88005391,0.0282687303 C1.79919137,-0.0260671306 1.69137466,0.00110079985 1.63746631,0.0826045912 C1.54986523,0.225236226 1.44878706,0.374659843 1.32749326,0.551251391 C0.795148248,1.33912137 0,2.52771833 0,3.20691659 C0,3.70273132 0.202156334,4.15100217 0.525606469,4.47701734 C0.849056604,4.79624052 1.29380054,5 1.78571429,5 C2.27762803,5 2.72237197,4.79624052 3.0458221,4.47022536 C3.36927224,4.14421019 3.57142857,3.69593934 3.57142857,3.20012461 C3.57142857,2.52092635 2.77628032,1.33912137 2.24393531,0.551251391 Z M2.8032345,4.22571398 C2.54043127,4.4906013 2.18328841,4.6468169 1.78571429,4.6468169 C1.38814016,4.6468169 1.0309973,4.48380932 0.76819407,4.22571398 C0.505390836,3.96082666 0.350404313,3.60085158 0.350404313,3.20012461 C0.350404313,2.62959807 1.11185984,1.49533697 1.61725067,0.741426904 C1.67789757,0.65313113 1.73180593,0.564835356 1.78571429,0.490123548 C1.83962264,0.564835356 1.893531,0.65313113 1.9541779,0.741426904 C2.45956873,1.50212896 3.22102426,2.62959807 3.22102426,3.20012461 C3.22102426,3.60085158 3.05929919,3.96082666 2.8032345,4.22571398 Z" id="Shape"></path>
                                    <path d="M2.72417345,2.85764857 C2.64681158,2.84964255 2.5805014,2.93770884 2.57497555,3.04979321 C2.5694497,3.22592579 2.53076877,3.39405235 2.46998444,3.53816083 C2.40920011,3.68226931 2.32078654,3.81036573 2.21579542,3.890426 C2.14948525,3.94646819 2.12185601,4.07456461 2.16053694,4.17063693 C2.20474373,4.2827213 2.2931573,4.31474541 2.35946748,4.25870322 C2.50866538,4.13861282 2.63023403,3.96248024 2.71312176,3.76232957 C2.80153533,3.56217891 2.85126796,3.32199811 2.85679381,3.07381129 C2.86231966,2.96172692 2.80153533,2.8656546 2.72417345,2.85764857 Z" id="Shape"></path>
                                </g>
                                <g id="permeable-paving-2" transform="translate(2.000000, 27.000000)">
                                    <path d="M2.24393531,0.551251391 C2.12938005,0.381451826 2.02830189,0.225236226 1.93396226,0.0826045912 C1.92048518,0.0622286433 1.90026954,0.0418526955 1.88005391,0.0282687303 C1.79919137,-0.0260671306 1.69137466,0.00110079985 1.63746631,0.0826045912 C1.54986523,0.225236226 1.44878706,0.374659843 1.32749326,0.551251391 C0.795148248,1.33912137 0,2.52771833 0,3.20691659 C0,3.70273132 0.202156334,4.15100217 0.525606469,4.47701734 C0.849056604,4.79624052 1.29380054,5 1.78571429,5 C2.27762803,5 2.72237197,4.79624052 3.0458221,4.47022536 C3.36927224,4.14421019 3.57142857,3.69593934 3.57142857,3.20012461 C3.57142857,2.52092635 2.77628032,1.33912137 2.24393531,0.551251391 Z M2.8032345,4.22571398 C2.54043127,4.4906013 2.18328841,4.6468169 1.78571429,4.6468169 C1.38814016,4.6468169 1.0309973,4.48380932 0.76819407,4.22571398 C0.505390836,3.96082666 0.350404313,3.60085158 0.350404313,3.20012461 C0.350404313,2.62959807 1.11185984,1.49533697 1.61725067,0.741426904 C1.67789757,0.65313113 1.73180593,0.564835356 1.78571429,0.490123548 C1.83962264,0.564835356 1.893531,0.65313113 1.9541779,0.741426904 C2.45956873,1.50212896 3.22102426,2.62959807 3.22102426,3.20012461 C3.22102426,3.60085158 3.05929919,3.96082666 2.8032345,4.22571398 Z" id="Shape"></path>
                                    <path d="M2.72417345,2.85764857 C2.64681158,2.84964255 2.5805014,2.93770884 2.57497555,3.04979321 C2.5694497,3.22592579 2.53076877,3.39405235 2.46998444,3.53816083 C2.40920011,3.68226931 2.32078654,3.81036573 2.21579542,3.890426 C2.14948525,3.94646819 2.12185601,4.07456461 2.16053694,4.17063693 C2.20474373,4.2827213 2.2931573,4.31474541 2.35946748,4.25870322 C2.50866538,4.13861282 2.63023403,3.96248024 2.71312176,3.76232957 C2.80153533,3.56217891 2.85126796,3.32199811 2.85679381,3.07381129 C2.86231966,2.96172692 2.80153533,2.8656546 2.72417345,2.85764857 Z" id="Shape"></path>
                                </g>
                                <g id="permeable-paving-2" transform="translate(29.400024, 3.000000)">
                                    <path d="M2.24393531,0.551251391 C2.12938005,0.381451826 2.02830189,0.225236226 1.93396226,0.0826045912 C1.92048518,0.0622286433 1.90026954,0.0418526955 1.88005391,0.0282687303 C1.79919137,-0.0260671306 1.69137466,0.00110079985 1.63746631,0.0826045912 C1.54986523,0.225236226 1.44878706,0.374659843 1.32749326,0.551251391 C0.795148248,1.33912137 0,2.52771833 0,3.20691659 C0,3.70273132 0.202156334,4.15100217 0.525606469,4.47701734 C0.849056604,4.79624052 1.29380054,5 1.78571429,5 C2.27762803,5 2.72237197,4.79624052 3.0458221,4.47022536 C3.36927224,4.14421019 3.57142857,3.69593934 3.57142857,3.20012461 C3.57142857,2.52092635 2.77628032,1.33912137 2.24393531,0.551251391 Z M2.8032345,4.22571398 C2.54043127,4.4906013 2.18328841,4.6468169 1.78571429,4.6468169 C1.38814016,4.6468169 1.0309973,4.48380932 0.76819407,4.22571398 C0.505390836,3.96082666 0.350404313,3.60085158 0.350404313,3.20012461 C0.350404313,2.62959807 1.11185984,1.49533697 1.61725067,0.741426904 C1.67789757,0.65313113 1.73180593,0.564835356 1.78571429,0.490123548 C1.83962264,0.564835356 1.893531,0.65313113 1.9541779,0.741426904 C2.45956873,1.50212896 3.22102426,2.62959807 3.22102426,3.20012461 C3.22102426,3.60085158 3.05929919,3.96082666 2.8032345,4.22571398 Z" id="Shape"></path>
                                    <path d="M2.72417345,2.85764857 C2.64681158,2.84964255 2.5805014,2.93770884 2.57497555,3.04979321 C2.5694497,3.22592579 2.53076877,3.39405235 2.46998444,3.53816083 C2.40920011,3.68226931 2.32078654,3.81036573 2.21579542,3.890426 C2.14948525,3.94646819 2.12185601,4.07456461 2.16053694,4.17063693 C2.20474373,4.2827213 2.2931573,4.31474541 2.35946748,4.25870322 C2.50866538,4.13861282 2.63023403,3.96248024 2.71312176,3.76232957 C2.80153533,3.56217891 2.85126796,3.32199811 2.85679381,3.07381129 C2.86231966,2.96172692 2.80153533,2.8656546 2.72417345,2.85764857 Z" id="Shape"></path>
                                </g>
                                <g id="permeable-paving-2" transform="translate(29.400024, 11.000000)">
                                    <path d="M2.24393531,0.551251391 C2.12938005,0.381451826 2.02830189,0.225236226 1.93396226,0.0826045912 C1.92048518,0.0622286433 1.90026954,0.0418526955 1.88005391,0.0282687303 C1.79919137,-0.0260671306 1.69137466,0.00110079985 1.63746631,0.0826045912 C1.54986523,0.225236226 1.44878706,0.374659843 1.32749326,0.551251391 C0.795148248,1.33912137 0,2.52771833 0,3.20691659 C0,3.70273132 0.202156334,4.15100217 0.525606469,4.47701734 C0.849056604,4.79624052 1.29380054,5 1.78571429,5 C2.27762803,5 2.72237197,4.79624052 3.0458221,4.47022536 C3.36927224,4.14421019 3.57142857,3.69593934 3.57142857,3.20012461 C3.57142857,2.52092635 2.77628032,1.33912137 2.24393531,0.551251391 Z M2.8032345,4.22571398 C2.54043127,4.4906013 2.18328841,4.6468169 1.78571429,4.6468169 C1.38814016,4.6468169 1.0309973,4.48380932 0.76819407,4.22571398 C0.505390836,3.96082666 0.350404313,3.60085158 0.350404313,3.20012461 C0.350404313,2.62959807 1.11185984,1.49533697 1.61725067,0.741426904 C1.67789757,0.65313113 1.73180593,0.564835356 1.78571429,0.490123548 C1.83962264,0.564835356 1.893531,0.65313113 1.9541779,0.741426904 C2.45956873,1.50212896 3.22102426,2.62959807 3.22102426,3.20012461 C3.22102426,3.60085158 3.05929919,3.96082666 2.8032345,4.22571398 Z" id="Shape"></path>
                                    <path d="M2.72417345,2.85764857 C2.64681158,2.84964255 2.5805014,2.93770884 2.57497555,3.04979321 C2.5694497,3.22592579 2.53076877,3.39405235 2.46998444,3.53816083 C2.40920011,3.68226931 2.32078654,3.81036573 2.21579542,3.890426 C2.14948525,3.94646819 2.12185601,4.07456461 2.16053694,4.17063693 C2.20474373,4.2827213 2.2931573,4.31474541 2.35946748,4.25870322 C2.50866538,4.13861282 2.63023403,3.96248024 2.71312176,3.76232957 C2.80153533,3.56217891 2.85126796,3.32199811 2.85679381,3.07381129 C2.86231966,2.96172692 2.80153533,2.8656546 2.72417345,2.85764857 Z" id="Shape"></path>
                                </g>
                                <g id="permeable-paving-2" transform="translate(29.400024, 19.000000)">
                                    <path d="M2.24393531,0.551251391 C2.12938005,0.381451826 2.02830189,0.225236226 1.93396226,0.0826045912 C1.92048518,0.0622286433 1.90026954,0.0418526955 1.88005391,0.0282687303 C1.79919137,-0.0260671306 1.69137466,0.00110079985 1.63746631,0.0826045912 C1.54986523,0.225236226 1.44878706,0.374659843 1.32749326,0.551251391 C0.795148248,1.33912137 0,2.52771833 0,3.20691659 C0,3.70273132 0.202156334,4.15100217 0.525606469,4.47701734 C0.849056604,4.79624052 1.29380054,5 1.78571429,5 C2.27762803,5 2.72237197,4.79624052 3.0458221,4.47022536 C3.36927224,4.14421019 3.57142857,3.69593934 3.57142857,3.20012461 C3.57142857,2.52092635 2.77628032,1.33912137 2.24393531,0.551251391 Z M2.8032345,4.22571398 C2.54043127,4.4906013 2.18328841,4.6468169 1.78571429,4.6468169 C1.38814016,4.6468169 1.0309973,4.48380932 0.76819407,4.22571398 C0.505390836,3.96082666 0.350404313,3.60085158 0.350404313,3.20012461 C0.350404313,2.62959807 1.11185984,1.49533697 1.61725067,0.741426904 C1.67789757,0.65313113 1.73180593,0.564835356 1.78571429,0.490123548 C1.83962264,0.564835356 1.893531,0.65313113 1.9541779,0.741426904 C2.45956873,1.50212896 3.22102426,2.62959807 3.22102426,3.20012461 C3.22102426,3.60085158 3.05929919,3.96082666 2.8032345,4.22571398 Z" id="Shape"></path>
                                    <path d="M2.72417345,2.85764857 C2.64681158,2.84964255 2.5805014,2.93770884 2.57497555,3.04979321 C2.5694497,3.22592579 2.53076877,3.39405235 2.46998444,3.53816083 C2.40920011,3.68226931 2.32078654,3.81036573 2.21579542,3.890426 C2.14948525,3.94646819 2.12185601,4.07456461 2.16053694,4.17063693 C2.20474373,4.2827213 2.2931573,4.31474541 2.35946748,4.25870322 C2.50866538,4.13861282 2.63023403,3.96248024 2.71312176,3.76232957 C2.80153533,3.56217891 2.85126796,3.32199811 2.85679381,3.07381129 C2.86231966,2.96172692 2.80153533,2.8656546 2.72417345,2.85764857 Z" id="Shape"></path>
                                </g>
                                <g id="permeable-paving-2" transform="translate(29.400024, 27.000000)">
                                    <path d="M2.24393531,0.551251391 C2.12938005,0.381451826 2.02830189,0.225236226 1.93396226,0.0826045912 C1.92048518,0.0622286433 1.90026954,0.0418526955 1.88005391,0.0282687303 C1.79919137,-0.0260671306 1.69137466,0.00110079985 1.63746631,0.0826045912 C1.54986523,0.225236226 1.44878706,0.374659843 1.32749326,0.551251391 C0.795148248,1.33912137 0,2.52771833 0,3.20691659 C0,3.70273132 0.202156334,4.15100217 0.525606469,4.47701734 C0.849056604,4.79624052 1.29380054,5 1.78571429,5 C2.27762803,5 2.72237197,4.79624052 3.0458221,4.47022536 C3.36927224,4.14421019 3.57142857,3.69593934 3.57142857,3.20012461 C3.57142857,2.52092635 2.77628032,1.33912137 2.24393531,0.551251391 Z M2.8032345,4.22571398 C2.54043127,4.4906013 2.18328841,4.6468169 1.78571429,4.6468169 C1.38814016,4.6468169 1.0309973,4.48380932 0.76819407,4.22571398 C0.505390836,3.96082666 0.350404313,3.60085158 0.350404313,3.20012461 C0.350404313,2.62959807 1.11185984,1.49533697 1.61725067,0.741426904 C1.67789757,0.65313113 1.73180593,0.564835356 1.78571429,0.490123548 C1.83962264,0.564835356 1.893531,0.65313113 1.9541779,0.741426904 C2.45956873,1.50212896 3.22102426,2.62959807 3.22102426,3.20012461 C3.22102426,3.60085158 3.05929919,3.96082666 2.8032345,4.22571398 Z" id="Shape"></path>
                                    <path d="M2.72417345,2.85764857 C2.64681158,2.84964255 2.5805014,2.93770884 2.57497555,3.04979321 C2.5694497,3.22592579 2.53076877,3.39405235 2.46998444,3.53816083 C2.40920011,3.68226931 2.32078654,3.81036573 2.21579542,3.890426 C2.14948525,3.94646819 2.12185601,4.07456461 2.16053694,4.17063693 C2.20474373,4.2827213 2.2931573,4.31474541 2.35946748,4.25870322 C2.50866538,4.13861282 2.63023403,3.96248024 2.71312176,3.76232957 C2.80153533,3.56217891 2.85126796,3.32199811 2.85679381,3.07381129 C2.86231966,2.96172692 2.80153533,2.8656546 2.72417345,2.85764857 Z" id="Shape"></path>
                                </g>
                            </g>
                        </g>
                    </g>
                </g>
            </g>
        </g>
    </g>
</svg>