<?xml version="1.0" encoding="UTF-8"?>
<svg width="35px" height="35px" viewBox="0 0 35 35" version="1.1" xmlns="http://www.w3.org/2000/svg" xmlns:xlink="http://www.w3.org/1999/xlink">
    <!-- Generator: Sketch 51.1 (57501) - http://www.bohemiancoding.com/sketch -->
    <title>tiles</title>
    <desc>Created with Sketch.</desc>
    <defs></defs>
    <g id="Site-design" stroke="none" stroke-width="1" fill="none" fill-rule="evenodd" fill-opacity="0.4">
        <g id="Homepage" transform="translate(-1111.000000, -997.000000)" fill="#F4F4F8" fill-rule="nonzero">
            <g id="SERVICES" transform="translate(0.000000, 609.000000)">
                <g id="tiles" transform="translate(1111.000000, 388.000000)">
                    <path d="M33.25,0 L1.75,0 C0.783945312,0.00102539062 0.00102539062,0.783945312 0,1.75 L0,33.25 C0.00102539062,34.2160547 0.783945312,34.9989746 1.75,35 L33.25,35 C34.2160547,34.9989746 34.9989746,34.2160547 35,33.25 L35,1.75 C34.9989746,0.783945312 34.2160547,0.00102539062 33.25,0 Z M33.8333105,33.25 C33.8329687,33.572041 33.572041,33.8330371 33.25,33.8333105 L1.75,33.8333105 C1.42795898,33.8329687 1.16696289,33.572041 1.16668945,33.25 L1.16668945,1.75 C1.16703125,1.42795898 1.42795898,1.16696289 1.75,1.16668945 L33.25,1.16668945 C33.572041,1.16703125 33.8330371,1.42795898 33.8333105,1.75 L33.8333105,33.25 Z" id="Shape"></path>
                    <path d="M32.1017635,2.31404964 L2.89816809,2.31404964 C2.74327472,2.3139812 2.59467838,2.37551363 2.48509628,2.48509474 C2.37558263,2.59460741 2.31404964,2.74320241 2.31404964,2.89816283 L2.31404964,32.1015634 C2.3139812,32.2564554 2.37551418,32.4050504 2.48509628,32.5146315 C2.59460994,32.6241442 2.74320627,32.6856766 2.89816809,32.6856766 L5.11568269,32.6856766 L5.11753073,32.6859504 L5.11903655,32.6856766 L13.292725,32.6856766 L13.294573,32.6859504 L13.2960788,32.6856766 L21.568398,32.6856766 L21.5702461,32.6859504 L21.5717519,32.6856766 L29.763647,32.6856766 L29.765495,32.6859504 L29.7670008,32.6856766 L32.1018319,32.6856766 C32.2567253,32.6857451 32.4053216,32.6242126 32.5149037,32.5146315 C32.6244858,32.4050504 32.6859504,32.2565239 32.6859504,32.1015634 L32.6859504,17.1708802 L32.6859504,2.89816283 C32.6860188,2.74327085 32.6244858,2.59467585 32.5149037,2.48509474 C32.4053216,2.37558207 32.2567253,2.31404964 32.1017635,2.31404964 Z M27.2324442,6.62330464 C27.2739909,6.67593916 27.3243672,6.7209078 27.3814512,6.75615719 C27.3965778,6.77333699 27.4112252,6.78976389 27.4294319,6.80954461 L28.2280602,8.85517278 C28.0409972,8.79802086 27.8483216,8.76133412 27.6533873,8.74566012 C26.6180041,8.7227309 25.6264949,9.16386161 24.9503165,9.94831453 C24.5080867,10.4808199 23.857028,10.7958741 23.1650386,10.8121641 C22.6235621,10.7421445 22.1282181,10.4711006 21.7772953,10.0528307 L20.9048137,7.82014119 C21.0415004,7.85381634 21.1806512,7.87660866 21.3209656,7.88838127 C21.3865369,7.89296712 21.4515606,7.89522581 21.5166528,7.89522581 C22.4816734,7.84799848 23.3863931,7.4115905 24.0241048,6.68572686 C24.4653764,6.15205794 25.1170511,5.83672991 25.8093827,5.82187725 C26.3682446,5.89860456 26.8770724,6.18511708 27.2324442,6.62330464 Z M10.5792504,23.5482135 L9.54017119,20.8890406 C9.75509174,20.9637146 9.97863648,21.0110788 10.2053982,21.0299013 C10.2709695,21.0344871 10.3359932,21.0367458 10.4010854,21.0367458 C11.366106,20.9895185 12.2708257,20.553179 12.9085374,19.8272469 C13.3505619,19.2944677 14.0017574,18.9794135 14.6938153,18.9633973 C15.2527456,19.0400561 15.7615734,19.3265686 16.1169452,19.7647562 C16.1193408,19.7680416 16.1232423,19.7694105 16.1257748,19.7726274 L17.1742995,22.4560984 C16.9682085,22.387037 16.75452,22.343095 16.5378883,22.3251623 C15.5026421,22.3030545 14.5114751,22.7439799 13.8348176,23.5278168 C13.3930669,24.0609381 12.7417344,24.3761293 12.0495397,24.3916664 C11.4895827,24.3150759 10.980002,24.0277421 10.6246986,23.5883225 C10.610188,23.5740859 10.5950615,23.5606706 10.5792504,23.5482135 Z M13.6316697,13.389887 C13.437283,13.3282177 13.2365992,13.2887247 13.0333145,13.2721609 C11.9979314,13.2495054 11.0066275,13.6905677 10.3302438,14.4748153 C9.88931441,15.0089633 9.23743439,15.3244282 8.54496587,15.3386649 C7.98507731,15.2620745 7.47542814,14.9747406 7.12012478,14.5352526 C7.0914459,14.5032201 7.05913937,14.4746099 7.02388966,14.4499696 L5.99713071,11.8226238 C6.22389242,11.9049637 6.46051036,11.9568453 6.70096127,11.9768313 C6.76653257,11.9814172 6.83155631,11.9836759 6.89664848,11.9836759 C7.86166911,11.9364486 8.76638878,11.500109 9.40410048,10.7741769 C9.84687787,10.242356 10.4975943,9.92750713 11.1893784,9.91032733 C11.7239419,9.97788295 12.2138102,10.2431774 12.5625427,10.6539183 L13.6316697,13.389887 Z M8.45311129,16.5034005 C8.51868259,16.5079864 8.58370632,16.5102451 8.6487985,16.5102451 C9.61381913,16.4630177 10.5185388,16.0266782 11.1562505,15.3007461 C11.5980012,14.7676248 12.2493336,14.4524336 12.9415284,14.4368965 C13.4907394,14.508422 13.9922434,14.786105 14.3442614,15.213752 L15.4029162,17.9230269 C15.2026431,17.85773 14.995457,17.8159783 14.785533,17.79873 C13.7504236,17.7772382 12.7595304,18.2180951 12.0824622,19.0013845 C11.6404377,19.5341636 10.9892422,19.8492178 10.2971843,19.8652341 C9.73729577,19.7886437 9.2276466,19.5013098 8.87234324,19.0618902 C8.85057741,19.038961 8.82682663,19.0179483 8.8015016,18.9990573 L7.76858251,16.3559007 C7.98938941,16.4343391 8.21950498,16.483962 8.45311129,16.5034005 Z M14.2861507,11.8551354 C14.4841651,11.918995 14.6888187,11.9598569 14.8961418,11.9768998 C14.9617131,11.9814856 15.0267368,11.9837443 15.091829,11.9837443 C16.0568496,11.936517 16.9615693,11.500109 17.599281,10.7742454 C18.0417846,10.2420823 18.6927064,9.92709645 19.3845589,9.91039577 C19.9191224,9.9779514 20.4090591,10.2431774 20.7578601,10.6539868 L21.8269871,13.3899554 C21.6326004,13.3282861 21.4318482,13.2887931 21.2286319,13.2722293 C20.1931803,13.2492316 19.2017395,13.6903624 18.5255611,14.4748837 C18.0842896,15.0086211 17.4326149,15.3239491 16.7402833,15.3387333 C16.1973693,15.2681661 15.7008618,14.9958902 15.3494598,14.576046 L14.2861507,11.8551354 Z M17.1304256,19.1341001 L16.0574656,16.3882069 C16.2495252,16.4484389 16.4477449,16.4870421 16.6483602,16.5033321 C16.7139315,16.5079179 16.7789553,16.5101766 16.8440474,16.5101766 C17.8090681,16.4629493 18.7137877,16.0266098 19.3514994,15.3006777 C19.792771,14.7670088 20.4444457,14.4516807 21.1367773,14.4368281 C21.6860567,14.5083535 22.1875608,14.7860366 22.5395788,15.2136836 L23.5982336,17.9229585 C23.3979605,17.8576616 23.1907743,17.8159098 22.9808504,17.7986616 C21.9456726,17.776896 20.9547109,18.2178213 20.2777796,19.001316 C19.8353444,19.5335476 19.1844227,19.8484649 18.4925017,19.8651656 C17.963277,19.7993211 17.4777208,19.538681 17.1304256,19.1341001 Z M18.4005787,21.0299013 C18.46615,21.0344871 18.5311737,21.0367458 18.5962659,21.0367458 C19.5612865,20.9895185 20.4660062,20.5531105 21.1037179,19.8272469 C21.5454001,19.2940571 22.196801,18.9788659 22.8889958,18.9633973 C23.4460781,19.0382765 23.9535369,19.3230779 24.3076767,19.7594859 L24.3115097,19.7676309 L24.3263625,19.7865218 L25.36948,22.4561669 C25.163389,22.3871055 24.9497005,22.3431635 24.7330688,22.3252308 C23.6977541,22.3028491 22.7065187,22.7439114 22.0299981,23.5278852 C21.5879051,24.0605959 20.936778,24.3756501 20.2447202,24.3917348 C19.7298007,24.3292441 19.2555381,24.0804451 18.9115283,23.6922227 L17.8287805,20.9213469 C18.0149537,20.9779512 18.2066711,21.0143642 18.4005787,21.0299013 Z M23.5583295,14.6109532 L22.4842744,11.8624591 C22.6757179,11.9222804 22.8732532,11.9606782 23.0731841,11.9769682 C23.1387554,11.9815541 23.2037791,11.9838128 23.2688713,11.9838128 C24.2338919,11.9365854 25.1386116,11.5002459 25.7763233,10.7743138 C26.2181424,10.2413294 26.8694749,9.92620666 27.5616012,9.91046422 C28.0981496,9.97863585 28.5896606,10.245573 28.9389407,10.6585726 L30.0052615,13.390503 C29.810464,13.3285599 29.6093011,13.28893 29.4056058,13.2722978 C28.3702226,13.2496423 27.3789187,13.6907046 26.702535,14.4749522 C26.2607158,15.0079366 25.6093834,15.3231278 24.9172571,15.3388018 C24.3896066,15.2732311 23.905214,15.0138229 23.5583295,14.6109532 Z M26.1305315,3.48220757 L26.6563339,4.82921337 C26.414035,4.73633294 26.1597579,4.67842812 25.9011004,4.65714159 C24.8658541,4.63496528 23.8746871,5.0759591 23.1980296,5.85979601 C22.7568265,6.39360182 22.1051518,6.70892985 21.4127517,6.72364562 C20.9883179,6.6797721 20.5895513,6.49976066 20.2758631,6.21057877 L19.2098161,3.48220757 L26.1305315,3.48220757 Z M19.0554019,6.62330464 C19.1264489,6.71214679 19.2021502,6.79715599 19.282232,6.87799003 L20.0555353,8.85681547 C19.8671034,8.79877376 19.6728536,8.76153945 19.4762766,8.74572856 C18.4409618,8.72321002 17.4496579,9.16427229 16.7732058,9.94838298 C16.331592,10.4817097 15.6801226,10.7969008 14.9879279,10.8122326 C14.4293398,10.7367373 13.9207173,10.4506354 13.5660984,10.0124479 L12.7082643,7.8169927 C12.8512481,7.85272121 12.9969697,7.87660866 13.1439233,7.88844972 C13.2094946,7.89303556 13.2745183,7.89529426 13.3396105,7.89529426 C14.3046311,7.84806692 15.2093508,7.41165894 15.8470625,6.6857953 C16.2890186,6.15294773 16.9402141,5.83782503 17.6323404,5.8219457 C18.1912707,5.89860456 18.7000301,6.18511708 19.0554019,6.62330464 Z M17.9554057,3.48220757 L18.4821664,4.83017161 C18.2389776,4.73674361 17.9837423,4.67842812 17.7241265,4.65714159 C16.6888118,4.63462305 15.6975079,5.07568532 15.0210558,5.85979601 C14.5790997,6.39264358 13.9278357,6.70769783 13.2357779,6.72364562 C12.7995713,6.67744496 12.3906063,6.48922006 12.0717846,6.18792334 L11.0145672,3.48220757 L17.9554057,3.48220757 Z M10.860153,6.62330464 C10.8796601,6.64363292 10.9007414,6.66238697 10.9231233,6.67942988 C10.9557721,6.71919666 11.006559,6.77648548 11.0755526,6.84869539 L11.8602864,8.85681547 C11.6718545,8.79877376 11.4776046,8.76153945 11.2810276,8.74572856 C10.245576,8.72266246 9.25406677,9.16379317 8.57795685,9.94838298 C8.1353848,10.4804092 7.48453147,10.795395 6.79267896,10.8122326 C6.2327904,10.7356422 5.72314124,10.4483083 5.36783788,10.0088887 C5.33265662,9.96727391 5.29165744,9.9309294 5.24607238,9.90101875 L4.4235564,7.79611685 C4.59515061,7.84402864 4.77098847,7.87496597 4.94860592,7.88844972 C5.01417722,7.89303556 5.07920095,7.89529426 5.14429313,7.89529426 C6.10931376,7.84806692 7.01403343,7.41165894 7.65174513,6.6857953 C8.09274292,6.15171571 8.7445545,5.83631923 9.43702302,5.8219457 C9.99602178,5.89860456 10.5047811,6.18511708 10.860153,6.62330464 Z M3.4822181,3.48220757 L9.76015675,3.48220757 L10.2869174,4.83017161 C10.0437287,4.73674361 9.7884934,4.67842812 9.5288776,4.65714159 C8.49356289,4.63482839 7.50239588,5.07582221 6.82580684,5.85979601 C6.38419303,6.39305425 5.73272368,6.7082454 5.04052895,6.72364562 C4.54491122,6.66526168 4.08639124,6.43193125 3.74744648,6.06567983 L3.4822181,5.38704352 L3.4822181,3.48220757 Z M3.4822181,8.59685978 L5.3528482,13.3838638 C5.20897463,13.3399218 5.06181566,13.3078209 4.9127402,13.2878349 C4.42691025,13.2267815 3.93355124,13.2946794 3.4822181,13.4846839 L3.4822181,8.59685978 Z M3.4822181,14.8110876 C3.84771992,14.5396331 4.29912151,14.4096552 4.7530556,14.44511 C5.26948093,14.5397015 5.7358722,14.8136885 6.06995729,15.2186801 L7.12744851,17.9248065 C6.92662785,17.8590989 6.71875724,17.8171419 6.5081488,17.7998252 C5.47297099,17.7779911 4.48194087,18.2189165 3.80507804,19.0024796 C3.69741243,19.1101442 3.58974682,19.2052834 3.4822181,19.2935095 L3.4822181,14.8110876 Z M3.4822181,20.6925338 C3.90719952,20.4650897 4.29460407,20.1736491 4.63094788,19.8284104 C5.0733146,19.296042 5.72430482,18.9810562 6.41622577,18.9645608 C6.97611433,19.0412197 7.48569505,19.3285536 7.84106686,19.7679047 C7.84394159,19.7716007 7.84818524,19.773175 7.85105998,19.7767341 L8.89883186,22.4579465 C8.69205639,22.3884744 8.47768341,22.3443271 8.26029881,22.3263259 C7.22498411,22.3038758 6.23374865,22.7448696 5.55722805,23.5289803 C4.84621066,24.2394438 4.15025139,24.5093925 3.48214965,24.3432755 L3.48214965,20.6925338 L3.4822181,20.6925338 Z M3.4822181,31.5174503 L3.4822181,29.5230193 L4.26188687,31.5174503 L3.4822181,31.5174503 Z M4.24881368,28.2746433 L3.4822181,26.3136137 L3.4822181,25.5329252 C3.6099384,25.551474 3.73875383,25.5609879 3.86777461,25.5612617 C4.83587531,25.5199206 5.74483863,25.0839918 6.38316634,24.3549112 C6.82443792,23.8212423 7.4761126,23.5059142 8.16844423,23.4910616 C8.72833279,23.5677204 9.23791351,23.8550543 9.59328532,24.2944739 C9.60327844,24.3076154 9.61792589,24.3138439 9.62880881,24.3258903 L10.6693254,26.9887593 C10.4578272,26.9162756 10.2381838,26.8702802 10.015392,26.8517315 C8.98014575,26.8296237 7.98904718,27.2706175 7.31232125,28.054386 C6.86968075,28.5863437 6.21889586,28.9012611 5.52704335,28.9182356 C5.03827023,28.8615628 4.58543127,28.6335711 4.24881368,28.2746433 Z M5.51650266,31.5174503 L4.92109062,29.9943344 C5.08926252,30.0402613 5.2614043,30.0698981 5.43518878,30.0829028 C5.50076008,30.0874886 5.56578381,30.0897473 5.63087599,30.0897473 C6.59589661,30.04252 7.50061628,29.6061804 8.13832798,28.8802484 C8.57994179,28.3469217 9.23141114,28.0317305 9.92360587,28.0163987 C10.4825362,28.0930576 10.991364,28.3795701 11.3467358,28.8177577 C11.3646687,28.8362379 11.3839704,28.8534177 11.4043674,28.8691602 L12.4390661,31.5174503 L5.51650266,31.5174503 Z M12.3767802,28.1148917 C12.371236,28.107568 12.3628172,28.1043511 12.3569308,28.0973012 L11.3115545,25.422249 C11.5205887,25.4931585 11.7375627,25.5381955 11.9575482,25.5564705 C12.0231195,25.5610563 12.0881432,25.563315 12.1532354,25.563315 C13.118256,25.5160877 14.0229757,25.0796797 14.6606874,24.3538161 C15.1015483,23.8195311 15.7534283,23.5041347 16.4459653,23.4899664 C17.0048956,23.5666253 17.5137234,23.8531378 17.8690952,24.2913254 C17.8786777,24.3040562 17.8929145,24.3100794 17.9032498,24.3217836 L18.945546,26.9893068 C18.7335686,26.9165493 18.5133778,26.8703487 18.2900383,26.8518 C17.2548605,26.8299659 16.2638304,27.2708913 15.5869676,28.0544544 C15.1440533,28.58607 14.4934053,28.9008504 13.8016897,28.918304 C13.2417327,28.8416451 12.7320835,28.5543113 12.3767802,28.1148917 Z M13.693545,31.5174503 L13.0830748,29.955389 C13.2862226,30.0225339 13.4965573,30.0653807 13.7097667,30.0829712 C13.775338,30.0875571 13.8403617,30.0898158 13.9054539,30.0898158 C14.8704745,30.0425884 15.7751942,29.6062489 16.4129059,28.8803168 C16.8554095,28.3481537 17.5063313,28.0332363 18.1981838,28.0164672 C18.7571141,28.0931261 19.2659419,28.3796386 19.6213137,28.8178261 C19.6397941,28.8369224 19.6597119,28.8547182 19.6807933,28.8709398 L20.714876,31.5174503 L13.693545,31.5174503 Z M20.692015,28.2487709 L19.6000954,25.4544868 C19.7803138,25.507532 19.9655288,25.5416863 20.1527971,25.5564705 C20.2183684,25.5610563 20.2833922,25.563315 20.3484844,25.563315 C21.313505,25.5160877 22.2182247,25.0796797 22.8559364,24.3538161 C23.2976871,23.8206947 23.949088,23.505572 24.6412142,23.4899664 C25.2001446,23.5666253 25.7089724,23.8531378 26.0643442,24.2913254 L26.070915,24.2971432 C26.0750218,24.3026189 26.0759116,24.309395 26.0802921,24.3146653 L26.108355,24.3469031 L27.1407949,26.9892384 C26.9288176,26.9164809 26.7086267,26.8702802 26.4852873,26.8517315 C25.450041,26.8297606 24.4590109,27.2706859 23.7822165,28.054386 C23.3402605,28.5872335 22.6889965,28.9023562 21.9969386,28.9182356 C21.4958452,28.8583458 21.0328762,28.6208402 20.692015,28.2487709 Z M26.025946,20.9262065 C26.2335428,20.9882865 26.4479157,21.0249732 26.6643421,21.0355823 C26.6997287,21.0370196 26.7344993,21.0375672 26.7698859,21.0375672 C27.7354541,20.9906136 28.6407213,20.5543425 29.2789806,19.828342 C30.048314,19.0590155 30.7999199,18.8031665 31.5177135,19.0629169 L31.5177135,22.5881981 C31.0272976,22.8204334 30.5827406,23.1391152 30.2052608,23.5289119 C29.7750774,24.0507397 29.1440735,24.3661362 28.4684427,24.3970051 C27.9498955,24.3508729 27.467967,24.1104926 27.1192344,23.7239813 L26.025946,20.9262065 Z M21.969218,31.5174503 L21.3714103,29.9875583 C21.5456739,30.0370443 21.724455,30.0690084 21.9050841,30.0829028 C21.9706554,30.0874886 22.0356791,30.0897473 22.1007713,30.0897473 C23.0657919,30.04252 23.9705116,29.606112 24.6082233,28.8802484 C25.0504531,28.347743 25.7015118,28.0326888 26.3935012,28.0163987 C26.952363,28.0929892 27.4611224,28.3795017 27.8164942,28.8176208 C27.8186845,28.8205639 27.8188898,28.82426 27.821217,28.8272032 C27.821217,28.8272032 27.8504434,28.8628632 27.8917164,28.910775 L28.9101249,31.5173818 L21.969218,31.5173818 L21.969218,31.5174503 Z M31.5177135,31.5174503 L30.1644669,31.5174503 L29.5687126,29.992897 C29.7985544,30.0539504 30.0353093,30.0851615 30.2731592,30.0857775 C30.7041639,30.0816023 31.1290084,29.9828356 31.5177135,29.7965271 L31.5177135,31.5174503 Z M31.5177135,28.4388439 C31.1552233,28.7766904 30.6701462,28.9511578 30.1755552,28.9215894 C29.6809641,28.892021 29.2200486,28.6610861 28.9004056,28.2825145 L27.7985613,25.4624265 C28.0043786,25.521358 28.2164244,25.5556491 28.4302498,25.5646155 C28.4605029,25.5654368 28.4901401,25.5660528 28.5203932,25.5660528 C29.4866459,25.5184833 30.3923922,25.0816646 31.031199,24.3551165 C31.182191,24.204605 31.3448872,24.0663453 31.5177135,23.9415009 L31.5177135,28.4388439 Z M31.5177135,17.8515699 C30.7166211,17.6844946 29.6327097,17.8224122 28.4530423,19.002548 C28.0226536,19.5278666 27.3874745,19.8431262 26.708832,19.8683826 C26.1798126,19.8185543 25.6898759,19.5683863 25.3393638,19.1690073 L24.2556577,16.395599 C24.4412149,16.4518611 24.6322478,16.4880003 24.825471,16.503469 C24.8910423,16.5080548 24.956066,16.5103135 25.0211582,16.5103135 C25.9861788,16.4630862 26.8908985,16.0267467 27.5286102,15.3008146 C27.9706347,14.7680354 28.6218302,14.4529127 29.3138881,14.436965 C29.8635097,14.5084904 30.3652876,14.7865842 30.7173055,15.2146418 L31.5177819,17.2655403 L31.5177819,17.8515699 L31.5177135,17.8515699 Z M31.5177135,14.0526439 L30.6587157,11.8521922 C30.9225067,11.9404868 31.1984812,11.9869613 31.4766458,11.9899729 C31.4899244,11.9899729 31.504298,11.9872351 31.5177135,11.9870297 L31.5177135,14.0526439 Z M31.5177135,10.8166131 C30.9063535,10.7852651 30.3381145,10.4920449 29.9583075,10.0119003 C29.9477668,9.99780057 29.9320926,9.99102447 29.9205253,9.97815674 L29.0710415,7.8020716 C29.1408565,7.81952518 29.2033477,7.84656112 29.2766534,7.85894974 C29.4234702,7.88372698 29.5720665,7.8961156 29.7210051,7.89604716 C30.3676832,7.88359009 30.9948542,7.67270976 31.5177135,7.29194791 L31.5177135,10.8166131 Z M31.5177135,5.76431466 C31.482806,5.79778446 31.449815,5.82571019 31.4144968,5.86102803 C30.946326,6.44651012 30.2192922,6.76313862 29.4717931,6.70715027 C29.0776808,6.62631623 28.7151906,6.43391617 28.427375,6.15287929 L27.3848735,3.48220757 L31.5177135,3.48220757 L31.5177135,5.76431466 Z" id="Shape"></path>
                </g>
            </g>
        </g>
    </g>
</svg>