<?xml version="1.0" encoding="UTF-8"?>
<svg width="34px" height="35px" viewBox="0 0 34 35" version="1.1" xmlns="http://www.w3.org/2000/svg" xmlns:xlink="http://www.w3.org/1999/xlink">
    <!-- Generator: Sketch 51.1 (57501) - http://www.bohemiancoding.com/sketch -->
    <title>shed-bases</title>
    <desc>Created with Sketch.</desc>
    <defs></defs>
    <g id="Site-design" stroke="none" stroke-width="1" fill="none" fill-rule="evenodd" fill-opacity="0.4">
        <g id="Homepage" transform="translate(-944.000000, -921.000000)" fill="#F4F4F8" fill-rule="nonzero">
            <g id="SERVICES" transform="translate(0.000000, 609.000000)">
                <g id="Icons" transform="translate(253.000000, 124.000000)">
                    <g id="row" transform="translate(189.000000, 188.000000)">
                        <g id="Shed-bases" transform="translate(475.000000, 0.000000)">
                            <g id="shed-bases" transform="translate(27.000000, 0.000000)">
                                <path d="M31.8873197,5.93076023 L17.6278558,0.177933723 C17.0394055,-0.0593567251 16.3912573,-0.059288499 15.8028752,0.178001949 L1.54347953,5.93076023 C0.296306043,6.43392788 -0.309064327,7.85794347 0.194103314,9.10518519 C0.697270955,10.3523587 2.12128655,10.9576608 3.36859649,10.4546296 L4.68877193,9.92205653 L4.68877193,34.2360721 C4.68877193,34.6203216 5.0002924,34.9319103 5.38461014,34.9319103 L11.4253509,34.9319103 L22.0055166,34.9319103 L28.0462573,34.9319103 C28.430575,34.9319103 28.7420955,34.6203216 28.7420955,34.2360721 L28.7420955,9.9219883 L30.0625439,10.4546979 C30.3548246,10.5724561 30.661501,10.6322222 30.9743177,10.6322222 C31.9745127,10.6322222 32.8626121,10.0328558 33.2368324,9.10518519 C33.7398635,7.85794347 33.1345614,6.43385965 31.8873197,5.93076023 Z M10.7295127,33.5400975 L6.08044834,33.5400975 L6.08044834,30.4784503 L10.7295127,30.4784503 L10.7295127,33.5400975 Z M10.7295127,29.0867739 L6.08044834,29.0867739 L6.08044834,26.2314425 L10.7295127,26.2314425 L10.7295127,29.0867739 Z M10.7295127,24.8398343 L6.08044834,24.8398343 L6.08044834,21.7854191 L10.7295127,21.7854191 L10.7295127,24.8398343 Z M10.7295127,20.3937427 L6.08044834,20.3937427 L6.08044834,17.5384795 L10.7295127,17.5384795 L10.7295127,20.3937427 Z M21.3096784,33.5400975 L12.1211891,33.5400975 L12.1211891,15.8262768 L21.3096784,15.8262768 L21.3096784,33.5400975 Z M27.3503509,33.5400975 L22.7012865,33.5400975 L22.7012865,30.4784503 L27.3503509,30.4784503 L27.3503509,33.5400975 Z M27.3503509,29.0867739 L22.7012865,29.0867739 L22.7012865,26.2314425 L27.3503509,26.2314425 L27.3503509,29.0867739 Z M27.3503509,24.8398343 L22.7012865,24.8398343 L22.7012865,21.7854191 L27.3503509,21.7854191 L27.3503509,24.8398343 Z M27.3503509,20.3937427 L22.7012865,20.3937427 L22.7012865,17.5384795 L27.3503509,17.5384795 L27.3503509,20.3937427 Z M27.3504191,16.1466667 L22.7012865,16.1466667 L22.7012865,15.1303704 C22.7012865,14.7461209 22.3897661,14.4345322 22.0054483,14.4345322 L11.4252827,14.4345322 C11.0409649,14.4345322 10.7294444,14.7461209 10.7294444,15.1303704 L10.7294444,16.1466667 L6.08044834,16.1466667 L6.08044834,13.0129727 L18.6545224,13.0129727 C19.0388402,13.0129727 19.3503606,12.701384 19.3503606,12.3171345 C19.3503606,11.932885 19.0388402,11.6212963 18.6545224,11.6212963 L6.08044834,11.6212963 L6.08044834,9.3604191 L7.52117934,8.76842105 L25.882807,8.76842105 L27.3504191,9.36048733 L27.3504191,16.1466667 Z M10.9975049,7.37674464 L16.7153996,5.07001949 L22.4332261,7.37674464 L10.9975049,7.37674464 Z M31.9461306,8.58448343 C31.7853216,8.98306043 31.4038694,9.24054581 30.9742495,9.24054581 C30.8406628,9.24054581 30.7089181,9.21482456 30.5829045,9.1639961 L16.9757505,3.67431774 C16.8922417,3.64061404 16.8038207,3.62376218 16.7154678,3.62376218 C16.627115,3.62376218 16.5386257,3.64061404 16.4551852,3.67431774 L2.84796296,9.16392788 C2.31231969,9.37993177 1.70074074,9.12005848 1.48473684,8.58448343 C1.26866472,8.04890838 1.52860624,7.43739766 2.06418129,7.22125731 L16.3235088,1.46856725 C16.5762183,1.36663743 16.8546491,1.36663743 17.1073587,1.46849903 L31.3667544,7.22125731 C31.9022612,7.43732943 32.1622027,8.04884016 31.9461306,8.58448343 Z" id="Shape"></path>
                                <path d="M23.8732749,11.6213645 L21.5770565,11.6213645 C21.1927388,11.6213645 20.8812183,11.9329532 20.8812183,12.3172027 C20.8812183,12.7014522 21.1927388,13.0130409 21.5770565,13.0130409 L23.8732749,13.0130409 C24.2575926,13.0130409 24.5691131,12.7014522 24.5691131,12.3172027 C24.5691131,11.9329532 24.2575926,11.6213645 23.8732749,11.6213645 Z" id="Shape"></path>
                                <path d="M14.2011988,22.82423 C13.7023977,22.82423 13.2965887,23.230039 13.2965887,23.7288402 C13.2965887,24.2276413 13.7023977,24.6334503 14.2011988,24.6334503 C14.7,24.6334503 15.105809,24.2276413 15.105809,23.7288402 C15.105809,23.230039 14.7,22.82423 14.2011988,22.82423 Z" id="Shape"></path>
                            </g>
                        </g>
                    </g>
                </g>
            </g>
        </g>
    </g>
</svg>