<?xml version="1.0" encoding="UTF-8"?>
<svg width="26px" height="35px" viewBox="0 0 26 35" version="1.1" xmlns="http://www.w3.org/2000/svg" xmlns:xlink="http://www.w3.org/1999/xlink">
    <!-- Generator: Sketch 51.1 (57501) - http://www.bohemiancoding.com/sketch -->
    <title>soakaway</title>
    <desc>Created with Sketch.</desc>
    <defs></defs>
    <g id="Site-design" stroke="none" stroke-width="1" fill="none" fill-rule="evenodd" fill-opacity="0.4">
        <g id="Homepage" transform="translate(-467.000000, -827.000000)" fill="#F4F4F8" fill-rule="nonzero">
            <g id="SERVICES" transform="translate(0.000000, 609.000000)">
                <g id="Icons" transform="translate(253.000000, 124.000000)">
                    <g id="row" transform="translate(0.000000, 94.000000)">
                        <g id="Soakaways" transform="translate(184.000000, 0.000000)">
                            <g id="soakaway" transform="translate(30.000000, 0.000000)">
                                <path d="M15.8309153,3.85177966 C15.0241356,2.66533898 14.3122712,1.57381356 13.6478644,0.57720339 C13.5529492,0.434830508 13.4105763,0.292457627 13.2682034,0.197542373 C12.6987119,-0.182118644 11.9393898,0.00771186441 11.5597288,0.57720339 C10.9427797,1.57381356 10.2309153,2.61788136 9.37667797,3.85177966 C5.62752542,9.35686441 0.0275254237,17.6619492 0.0275254237,22.4077119 C0.0275254237,25.8721186 1.45125424,29.004322 3.72922034,31.2822881 C6.00718644,33.5127966 9.13938983,34.9365254 12.6037966,34.9365254 C16.0682034,34.9365254 19.2004068,33.5127966 21.4783729,31.2348305 C23.756339,28.9568644 25.1800678,25.824661 25.1800678,22.3602542 C25.1800678,17.6144915 19.5800678,9.35686441 15.8309153,3.85177966 Z M19.7698983,29.5263559 C17.9190508,31.3772034 15.4037966,32.4687288 12.6037966,32.4687288 C9.80379661,32.4687288 7.28854237,31.3297458 5.43769492,29.5263559 C3.58684746,27.6755085 2.49532203,25.1602542 2.49532203,22.3602542 C2.49532203,18.3738136 7.8580339,10.4483898 11.4173559,5.18059322 C11.8444746,4.56364407 12.2241356,3.94669492 12.6037966,3.42466102 C12.9834576,3.94669492 13.3631186,4.56364407 13.7902373,5.18059322 C17.3495593,10.4958475 22.7122712,18.3738136 22.7122712,22.3602542 C22.7122712,25.1602542 21.5732881,27.6755085 19.7698983,29.5263559 Z" id="Shape"></path>
                                <path d="M19.9597288,21.5060169 C19.295322,21.4585593 18.7258305,21.9805932 18.6783729,22.645 C18.6309153,23.6890678 18.2987119,24.685678 17.776678,25.5399153 C17.2546441,26.3941525 16.495322,27.1534746 15.5936271,27.6280508 C15.0241356,27.9602542 14.7868475,28.7195763 15.1190508,29.2890678 C15.4987119,29.9534746 16.2580339,30.1433051 16.8275254,29.8111017 C18.1088814,29.0992373 19.1529492,28.0551695 19.8648136,26.8687288 C20.6241356,25.6822881 21.0512542,24.2585593 21.0987119,22.7873729 C21.1461695,22.1229661 20.6241356,21.5534746 19.9597288,21.5060169 Z" id="Shape"></path>
                            </g>
                        </g>
                    </g>
                </g>
            </g>
        </g>
    </g>
</svg>