<?xml version="1.0" encoding="UTF-8"?>
<svg width="50px" height="35px" viewBox="0 0 50 35" version="1.1" xmlns="http://www.w3.org/2000/svg" xmlns:xlink="http://www.w3.org/1999/xlink">
    <!-- Generator: Sketch 51.1 (57501) - http://www.bohemiancoding.com/sketch -->
    <title>tarmac</title>
    <desc>Created with Sketch.</desc>
    <defs></defs>
    <g id="Site-design" stroke="none" stroke-width="1" fill="none" fill-rule="evenodd" fill-opacity="0.4">
        <g id="Homepage" transform="translate(-454.000000, -733.000000)" fill="#F4F4F8" fill-rule="nonzero">
            <g id="SERVICES" transform="translate(0.000000, 609.000000)">
                <g id="Icons" transform="translate(253.000000, 124.000000)">
                    <g id="row" transform="translate(19.000000, 0.000000)">
                        <g id="Tarmac" transform="translate(179.000000, 0.000000)">
                            <g id="tarmac" transform="translate(3.000000, 0.000000)">
                                <path d="M48.9803962,29.7954235 L37.5951639,1.29174863 C37.4495219,0.945860656 37.2129372,0.645587432 36.8856011,0.39102459 C36.5576913,0.135887978 36.2115164,0.00860655738 35.8476503,0.00860655738 L26.5921585,0.00860655738 C26.8285519,0.00860655738 27.0378825,0.094863388 27.2198634,0.267663934 C27.4017486,0.440942623 27.5018716,0.645300546 27.5203279,0.881885246 L27.93,6.1243306 C27.948265,6.37918033 27.8756831,6.58851093 27.7124454,6.75203552 C27.5481557,6.91584699 27.3481011,6.99760929 27.1112295,6.99760929 L22.5790164,6.99760929 C22.3424317,6.99760929 22.1424727,6.91584699 21.9785656,6.75203552 C21.8147541,6.58860656 21.7419809,6.37918033 21.7604372,6.1243306 L22.1700137,0.881885246 C22.1879918,0.645300546 22.2879235,0.440942623 22.4702869,0.267663934 C22.6522678,0.0951502732 22.8614071,0.00860655738 23.0982787,0.00860655738 L13.8425,0.00860655738 C13.4785383,0.00860655738 13.1326503,0.135887978 12.8049317,0.39102459 C12.4775,0.645300546 12.2411066,0.945860656 12.0952732,1.29174863 L0.709849727,29.7954235 C0.236584699,30.9238388 0,31.9794809 0,32.962541 C0,34.2912978 0.418565574,34.9555328 1.25598361,34.9555328 L20.4769126,34.9555328 C20.2403279,34.9555328 20.0403689,34.8691803 19.8763661,34.6963798 C19.7125546,34.5230055 19.6397814,34.3187432 19.6582377,34.081776 L20.2040847,27.0932514 C20.2222541,26.8562842 20.322377,26.651735 20.5043579,26.4786475 C20.6862432,26.3054645 20.895765,26.2197814 21.1323497,26.2197814 L28.5582787,26.2197814 C28.7952459,26.2197814 29.0040027,26.3054645 29.1865574,26.4786475 C29.3685383,26.651735 29.4686612,26.8562842 29.486735,27.0932514 L30.0332514,34.081776 C30.0518989,34.3187432 29.978265,34.5229098 29.8150273,34.6963798 C29.6514071,34.8691803 29.4510656,34.9555328 29.214194,34.9555328 L48.4348361,34.9555328 C49.2719672,34.9555328 49.6909153,34.2912978 49.6909153,32.962541 C49.6909153,31.9798634 49.4539481,30.9241257 48.9803962,29.7954235 Z M28.9683333,20.2120219 C28.9860246,20.4306284 28.913347,20.6125137 28.7497268,20.7578689 C28.5863934,20.9037978 28.3946585,20.9764754 28.1764344,20.9764754 L21.5144809,20.9764754 C21.2959699,20.9764754 21.1045219,20.9037978 20.9410929,20.7578689 C20.7770902,20.6119399 20.7044126,20.429959 20.7224863,20.2120219 L20.7224863,20.1027186 L21.3779235,11.3664891 C21.3960929,11.1298087 21.4962158,10.9251639 21.6781967,10.7521721 C21.8601776,10.5791803 22.0696038,10.4928279 22.3061885,10.4928279 L27.3840574,10.4928279 C27.6210246,10.4928279 27.8304508,10.5788934 28.0123361,10.7521721 C28.1942213,10.9251639 28.2944399,11.1298087 28.3128005,11.3664891 L28.9680464,20.1027186 L28.9680464,20.2120219 L28.9683333,20.2120219 Z" id="Shape"></path>
                            </g>
                        </g>
                    </g>
                </g>
            </g>
        </g>
    </g>
</svg>