<?xml version="1.0" encoding="UTF-8"?>
<svg width="50px" height="35px" viewBox="0 0 50 35" version="1.1" xmlns="http://www.w3.org/2000/svg" xmlns:xlink="http://www.w3.org/1999/xlink">
    <!-- Generator: Sketch 51.1 (57501) - http://www.bohemiancoding.com/sketch -->
    <title>turfing-artificial-grass</title>
    <desc>Created with Sketch.</desc>
    <defs></defs>
    <g id="Site-design" stroke="none" stroke-width="1" fill="none" fill-rule="evenodd" fill-opacity="0.4">
        <g id="Homepage" transform="translate(-775.000000, -921.000000)" fill="#F4F4F8" fill-rule="nonzero">
            <g id="SERVICES" transform="translate(0.000000, 609.000000)">
                <g id="Icons" transform="translate(253.000000, 124.000000)">
                    <g id="row" transform="translate(189.000000, 188.000000)">
                        <g id="Grass" transform="translate(295.000000, 0.000000)">
                            <g id="turfing-artificial-grass" transform="translate(38.000000, 0.000000)">
                                <path d="M48.6533279,32.9817049 L40.1243443,32.9817049 C40.6417705,21.4310164 48.1881148,11.6520164 48.2660328,11.5524098 C48.5577377,11.1802623 48.5405246,10.652623 48.2252951,10.3003279 C47.9100656,9.94803279 47.3875902,9.87240984 46.985377,10.1209672 C40.7813115,13.9563934 37.2083279,20.1822623 35.3035246,24.7297377 C34.956623,25.557918 34.651377,26.3589016 34.3834262,27.1196066 C34.5767869,22.8255082 35.4121967,17.1158033 38.0670328,12.0629508 C38.2740492,11.669 38.1882131,11.1849672 37.8582951,10.8862623 C37.528377,10.5875574 37.038377,10.5500328 36.6668033,10.7948033 C34.7281475,12.0725902 33.073623,13.763377 31.7140164,15.8482295 C32.1750984,9.65919672 34.9451475,1.39586885 34.9791148,1.29534426 C35.1193443,0.880508197 34.965918,0.422983607 34.6038689,0.176606557 C34.2418197,-0.0697704918 33.7599672,-0.0446393443 33.425459,0.238 C30.9198033,2.35567213 28.8778689,5.74768852 27.356459,10.3196066 C26.6040164,12.5807213 26.075459,14.841377 25.7059508,16.8201967 C24.065541,13.5711639 21.8789016,11.0345246 19.1744918,9.25204918 C18.802918,9.00716393 18.3126885,9.04480328 17.983,9.3435082 C17.653082,9.64221311 17.5672459,10.1262459 17.7742623,10.5201967 C20.7068033,16.1014918 21.5650492,22.4428033 21.7348852,27.0898852 C21.4151803,26.1550984 21.0416557,25.156623 20.6068525,24.1187869 C18.5743279,19.2665246 14.7624262,12.6237541 8.1452459,8.53288525 C7.74314754,8.28421311 7.22067213,8.35995082 6.90532787,8.7122459 C6.59009836,9.06454098 6.573,9.59218033 6.86459016,9.96432787 C6.93837705,10.058541 13.2287377,18.1921967 15.0965902,28.6068197 C14.6124426,27.6481639 14.0526721,26.6047049 13.4198033,25.5262459 C10.066918,19.8124098 6.44608197,16.0825574 2.65781967,14.4404262 C2.25583607,14.2661148 1.78729508,14.3813279 1.51177049,14.7215738 C1.2362459,15.0619344 1.22132787,15.5442459 1.47527869,15.9010164 C3.8234918,19.1993934 9.60583607,28.308459 9.82834426,32.9818197 L0.975409836,32.9818197 C0.436754098,32.9818197 0,33.4185738 0,33.9572295 C0,34.4958852 0.436754098,34.9326393 0.975409836,34.9326393 L48.6533279,34.9326393 C49.1919836,34.9326393 49.6287377,34.4958852 49.6287377,33.9572295 C49.6287377,33.4185738 49.1919836,32.9817049 48.6533279,32.9817049 Z M37.1229508,25.4358197 C38.374,22.4596721 40.3793279,18.7224754 43.428,15.5274918 C43.1208033,16.0880656 42.8061475,16.6878852 42.4905738,17.3231639 C40.6393607,21.0508361 38.435623,26.726 38.1721475,32.9815902 L34.7585574,32.9815902 C35.0644918,31.5138852 35.7654098,28.6652295 37.1229508,25.4358197 Z M34.5732295,15.2598852 C33.1536066,19.3453607 32.6297541,23.4214262 32.4581967,26.4407213 C32.2921475,29.3623607 32.4175738,31.7094262 32.5238361,32.9818197 L29.2139836,32.9818197 C29.2676885,30.079918 29.6181475,26.138918 30.8449836,22.3100328 C31.7472951,19.4939672 32.9953607,17.1363443 34.5732295,15.2598852 Z M31.7541803,5.2667541 C30.6268361,9.42842623 29.3002787,15.4874426 29.8178197,19.4570164 C29.5157869,20.1775574 29.2386557,20.9301148 28.9872295,21.7146885 C28.7055082,22.5937049 28.468082,23.477082 28.2674918,24.3527705 C28.0262787,23.2075246 27.727459,22.0452951 27.357377,20.8900656 C27.2865738,20.6689344 27.2130164,20.4511311 27.1384262,20.2347049 C27.5782787,16.8903115 28.7867541,10.1407049 31.7541803,5.2667541 Z M21.2665738,13.6524098 C23.0703934,15.7078852 24.4879508,18.3282951 25.499623,21.4854098 C26.8231967,25.6162131 27.1944262,29.8683115 27.2477869,32.9817049 L23.567623,32.9817049 C23.6822623,31.6420656 23.8243279,29.1018689 23.6437049,25.9255902 C23.455623,22.6188361 22.8723279,18.1255246 21.2665738,13.6524098 Z M11.6803607,13.846459 C15.1460492,17.3471475 17.4000492,21.5231639 18.7876557,24.8248689 C20.265918,28.3421967 21.0161803,31.4358525 21.3343934,32.9817049 L17.5380984,32.9817049 C17.2693443,26.2805246 14.9081639,20.1967213 12.9256721,16.2048852 C12.5044098,15.356623 12.0848689,14.568377 11.6803607,13.846459 Z M7.62093443,22.0044426 C6.96304918,20.8346393 6.3014918,19.7319672 5.69398361,18.7563279 C10.4318361,22.9933934 13.761082,30.1215738 14.9701311,32.9817049 L11.7783607,32.9817049 C11.6749672,30.4182131 10.2807049,26.7341475 7.62093443,22.0044426 Z" id="Shape"></path>
                            </g>
                        </g>
                    </g>
                </g>
            </g>
        </g>
    </g>
</svg>